<svg width="8" height="14" viewBox="0 0 8 14" fill="none" xmlns="http://www.w3.org/2000/svg">
<path fill-rule="evenodd" clip-rule="evenodd" d="M0.999625 6.98312e-08C0.743828 9.53661e-05 0.48806 0.0977264 0.292893 0.292893C-0.0976311 0.683418 -0.0976311 1.31658 0.292893 1.70711L5.58579 7L0.292894 12.2929C-0.0976306 12.6834 -0.0976305 13.3166 0.292894 13.7071C0.48798 13.9022 0.743617 13.9998 0.999308 14C0.99977 14 1.00023 14 1.00069 14C1.25638 13.9998 1.51202 13.9022 1.70711 13.7071L7.70711 7.70711C7.89464 7.51957 8 7.26522 8 7C8 6.73478 7.89464 6.48043 7.70711 6.29289L1.70711 0.292893C1.51194 0.0977264 1.25617 9.53661e-05 1.00037 6.98312e-08C1.00012 -2.32771e-08 0.999875 -2.32771e-08 0.999625 6.98312e-08Z" fill="black"/>
</svg>
