<svg width="340" height="343" viewBox="0 0 340 343" fill="none" xmlns="http://www.w3.org/2000/svg">
<path d="M168.612 313.852C217.125 313.852 256.451 306.911 256.451 298.348C256.451 289.786 217.125 282.845 168.612 282.845C120.1 282.845 80.7734 289.786 80.7734 298.348C80.7734 306.911 120.1 313.852 168.612 313.852Z" fill="#E4E8EC"/>
<path d="M148.733 93.4707L123.08 175.273L91.8613 196.81L96.7505 250.733L150.698 221.578C156.123 218.648 160.66 214.29 163.827 208.969C166.995 203.647 168.676 197.56 168.691 191.353L168.926 96.5131C168.927 95.1452 168.661 93.7904 168.143 92.5261C167.625 91.2621 166.865 90.1131 165.907 89.1455C164.949 88.1775 163.811 87.4099 162.558 86.8861C161.305 86.3624 159.963 86.0928 158.607 86.0928C156.394 86.0924 154.24 86.8093 152.463 88.1377C150.685 89.4658 149.377 91.3355 148.733 93.4707Z" fill="#FFC195"/>
<path d="M158.607 86.0928C156.2 86.0928 153.869 86.9424 152.017 88.4938C154.726 88.5425 157.308 89.6637 159.204 91.6161C161.1 93.5681 162.16 96.1945 162.153 98.9278L161.918 193.767C161.903 199.975 160.222 206.062 157.054 211.383C153.887 216.705 149.35 221.062 143.925 223.992L96.6416 249.536L96.7504 250.733L150.698 221.578C156.123 218.648 160.66 214.29 163.827 208.969C166.995 203.647 168.676 197.56 168.691 191.353L168.926 96.5131C168.927 95.1452 168.661 93.7904 168.143 92.5261C167.625 91.2621 166.865 90.1131 165.907 89.1455C164.949 88.1775 163.811 87.4099 162.558 86.8861C161.305 86.3624 159.963 86.0928 158.607 86.0928Z" fill="#FFA688"/>
<path d="M148.733 93.4707L123.08 175.273L91.8613 196.81L96.7505 250.733L150.698 221.578C156.123 218.648 160.66 214.29 163.827 208.969C166.995 203.647 168.676 197.56 168.691 191.353L168.926 96.5131C168.927 95.1452 168.661 93.7904 168.143 92.5261C167.625 91.2621 166.865 90.1131 165.907 89.1455C164.949 88.1775 163.811 87.4099 162.558 86.8861C161.305 86.3624 159.963 86.0928 158.607 86.0928C156.394 86.0924 154.24 86.8093 152.463 88.1377C150.685 89.4658 149.377 91.3355 148.733 93.4707Z" stroke="#171819" stroke-width="6" stroke-linecap="round" stroke-linejoin="round"/>
<path d="M116.056 187.206L123.896 211.065C125.575 216.168 126.38 221.522 126.276 226.898L125.964 243.482C125.931 245.102 125.437 246.679 124.542 248.025C123.648 249.372 122.388 250.431 120.915 251.076L68.8947 273.858L50.7217 200.01L101.851 180.394C103.224 179.866 104.69 179.624 106.159 179.683C107.627 179.742 109.069 180.101 110.396 180.737C111.724 181.374 112.91 182.275 113.883 183.387C114.856 184.499 115.595 185.798 116.056 187.206Z" fill="#FFCC00"/>
<path d="M123.896 211.065L116.056 187.206C115.436 185.321 114.32 183.64 112.829 182.344C111.336 181.047 109.523 180.184 107.583 179.845L114.142 199.801C115.818 204.903 116.623 210.256 116.522 215.63L116.202 232.211C116.172 233.832 115.681 235.409 114.787 236.757C113.893 238.104 112.634 239.163 111.16 239.808L65.4502 259.836L68.9046 273.862L120.925 251.079C122.398 250.433 123.657 249.374 124.551 248.027C125.446 246.68 125.938 245.103 125.97 243.482L126.283 226.898C126.384 221.522 125.577 216.168 123.896 211.065Z" fill="#FF9770"/>
<path d="M116.056 187.206L123.896 211.065C125.575 216.168 126.38 221.522 126.276 226.898L125.964 243.482C125.931 245.102 125.437 246.679 124.542 248.025C123.648 249.372 122.388 250.431 120.915 251.076L68.8947 273.858L50.7217 200.01L101.851 180.394C103.224 179.866 104.69 179.624 106.159 179.683C107.627 179.742 109.069 180.101 110.396 180.737C111.724 181.374 112.91 182.275 113.883 183.387C114.856 184.499 115.595 185.798 116.056 187.206Z" stroke="#171819" stroke-width="6" stroke-linecap="round" stroke-linejoin="round"/>
<path d="M160.558 134.405C159.349 134.406 158.156 134.678 157.064 135.201C155.972 135.724 155.009 136.485 154.244 137.43C156.354 137.512 158.35 138.415 159.813 139.95C161.276 141.485 162.093 143.532 162.091 145.662V182.819H168.711V142.63C168.709 140.449 167.85 138.358 166.321 136.816C164.793 135.274 162.72 134.407 160.558 134.405Z" fill="#FFA688"/>
<path d="M143.075 176.625L152.68 140.51C153.144 138.76 154.168 137.213 155.592 136.109C157.016 135.005 158.762 134.406 160.558 134.405C162.722 134.405 164.798 135.272 166.328 136.816C167.858 138.36 168.718 140.454 168.718 142.637V182.819" stroke="#171819" stroke-width="6" stroke-linecap="round" stroke-linejoin="round"/>
<path d="M189.122 93.4707L214.775 175.273L245.994 196.81L241.104 250.733L187.157 221.578C181.732 218.648 177.195 214.29 174.027 208.969C170.86 203.647 169.179 197.56 169.164 191.353L168.926 96.5131C168.925 95.1452 169.192 93.7904 169.711 92.5264C170.229 91.2625 170.989 90.1138 171.948 89.1462C172.906 88.1786 174.044 87.4109 175.297 86.8872C176.55 86.3631 177.892 86.0931 179.248 86.0928C181.461 86.0924 183.614 86.8093 185.392 88.1377C187.17 89.4658 188.477 91.3355 189.122 93.4707Z" fill="#FFC195"/>
<path d="M179.248 86.0928C181.655 86.0928 183.986 86.9424 185.837 88.4938C183.128 88.5425 180.546 89.6637 178.649 91.6158C176.753 93.5681 175.693 96.1941 175.699 98.9278L175.937 193.767C175.952 199.975 177.633 206.062 180.8 211.383C183.968 216.705 188.505 221.062 193.929 223.992L241.213 249.532L241.104 250.729L187.157 221.574C181.732 218.644 177.195 214.287 174.027 208.965C170.86 203.644 169.179 197.556 169.164 191.349L168.926 96.5097C168.926 93.7475 170.013 91.0985 171.949 89.1451C173.885 87.1917 176.51 86.0938 179.248 86.0928Z" fill="#FFA688"/>
<path d="M189.122 93.4707L214.775 175.273L245.994 196.81L241.104 250.733L187.157 221.578C181.732 218.648 177.195 214.29 174.027 208.969C170.86 203.647 169.179 197.56 169.164 191.353L168.926 96.5131C168.925 95.1452 169.192 93.7904 169.711 92.5264C170.229 91.2625 170.989 90.1138 171.948 89.1462C172.906 88.1786 174.044 87.4109 175.297 86.8872C176.55 86.3631 177.892 86.0931 179.248 86.0928C181.461 86.0924 183.614 86.8093 185.392 88.1377C187.17 89.4658 188.477 91.3355 189.122 93.4707Z" stroke="#171819" stroke-width="6" stroke-linecap="round" stroke-linejoin="round"/>
<path d="M221.799 187.206L213.959 211.065C212.282 216.169 211.477 221.523 211.579 226.898L211.895 243.482C211.928 245.102 212.42 246.679 213.315 248.025C214.209 249.371 215.467 250.43 216.941 251.076L268.961 273.858L287.134 200.01L235.994 180.398C234.622 179.871 233.157 179.63 231.69 179.69C230.222 179.749 228.782 180.108 227.456 180.744C226.129 181.381 224.945 182.281 223.972 183.392C223 184.502 222.261 185.8 221.799 187.206Z" fill="#FFCC00"/>
<path d="M213.959 211.065L221.799 187.206C222.419 185.321 223.535 183.64 225.026 182.344C226.519 181.047 228.332 180.184 230.272 179.845L223.72 199.801C222.043 204.903 221.239 210.256 221.34 215.63L221.656 232.214C221.686 233.835 222.178 235.413 223.072 236.76C223.966 238.107 225.225 239.166 226.699 239.812L272.405 259.836L268.94 273.862L216.941 251.076C215.467 250.43 214.208 249.37 213.314 248.023C212.42 246.677 211.927 245.099 211.895 243.479L211.579 226.895C211.478 221.52 212.283 216.168 213.959 211.065Z" fill="#FF9770"/>
<path d="M221.799 187.206L213.959 211.065C212.282 216.169 211.477 221.523 211.579 226.898L211.895 243.482C211.928 245.102 212.42 246.679 213.315 248.025C214.209 249.371 215.467 250.43 216.941 251.076L268.961 273.858L287.134 200.01L235.994 180.398C234.622 179.871 233.157 179.63 231.69 179.69C230.222 179.749 228.782 180.108 227.456 180.744C226.129 181.381 224.945 182.281 223.972 183.392C223 184.502 222.261 185.8 221.799 187.206Z" stroke="#171819" stroke-width="6" stroke-linecap="round" stroke-linejoin="round"/>
<path d="M177.297 134.405C178.504 134.407 179.695 134.68 180.785 135.203C181.876 135.726 182.837 136.487 183.6 137.43C181.491 137.512 179.495 138.415 178.031 139.95C176.568 141.485 175.751 143.532 175.753 145.662V182.819H169.144V142.63C169.145 140.449 170.005 138.358 171.533 136.816C173.062 135.274 175.135 134.407 177.297 134.405Z" fill="#FFA688"/>
<path d="M194.78 176.625L185.175 140.51C184.71 138.76 183.687 137.213 182.263 136.109C180.838 135.005 179.093 134.406 177.297 134.405C175.133 134.405 173.057 135.272 171.527 136.816C169.997 138.36 169.137 140.454 169.137 142.637V182.819" stroke="#171819" stroke-width="6" stroke-linecap="round" stroke-linejoin="round"/>
</svg>
