<svg width="1004" height="862" viewBox="0 0 1004 862" fill="none" xmlns="http://www.w3.org/2000/svg">
<path opacity="0.32" d="M205.356 436C200.466 436 195.903 437.6 192.317 440.3C186.015 426.6 171.347 417 154.288 417C131.471 417 113 434 113 455H184.712H195.577H226C226 444.5 216.764 436 205.356 436Z" fill="white"/>
<path d="M495.474 565.801H331.42V759.601H495.474V565.801Z" fill="#FFCC00"/>
<path d="M488.044 663.699H469.972V671.999H488.044V663.699Z" fill="#D85335"/>
<path d="M349.492 636.5H331.42V644.8H349.492V636.5Z" fill="#D85335"/>
<path d="M412.945 719.801H394.873V728.101H412.945V719.801Z" fill="#D85335"/>
<path d="M447.483 750.801H429.411V759.101H447.483V750.801Z" fill="#D85335"/>
<path d="M478.004 653.4H459.932V661.7H478.004V653.4Z" fill="#D85335"/>
<path d="M495.474 565.801H331.42V611.801H495.474V565.801Z" fill="#CE4829" stroke="#CE4829" stroke-width="6" stroke-miterlimit="10" stroke-linecap="round" stroke-linejoin="round"/>
<path d="M495.474 565.801H331.42V759.601H495.474V565.801Z" stroke="#1C1A34" stroke-width="6" stroke-miterlimit="10" stroke-linecap="round" stroke-linejoin="round"/>
<path d="M529.911 601.6H294.774L355.316 441.6H590.553L529.911 601.6Z" fill="#FE6571"/>
<path d="M334.031 582.301H315.959V590.601H334.031V582.301Z" fill="#F22F50"/>
<path d="M344.372 572H326.3V580.3H344.372V572Z" fill="#DD1738"/>
<path d="M323.991 572H305.919V580.3H323.991V572Z" fill="#F22F50"/>
<path d="M372.685 474.1H354.613V482.4H372.685V474.1Z" fill="#F22F50"/>
<path d="M362.645 463.699H344.573V471.999H362.645V463.699Z" fill="#F22F50"/>
<path opacity="0.82" d="M497.382 601.601L480.414 535.901L467.663 546.201C462.141 550.601 454.109 549.601 449.893 544.001C445.877 538.601 446.981 531.001 452.302 526.901L537.04 462.401C541.558 459.001 547.783 459.001 552.2 462.501L579.208 483.701L497.382 601.601Z" fill="#C91B38"/>
<path d="M529.911 601.6H294.774L355.316 441.6H590.553L529.911 601.6Z" stroke="#1C1A34" stroke-width="6" stroke-miterlimit="10" stroke-linecap="round" stroke-linejoin="round"/>
<path d="M474.189 405.301H435.636V441.601H474.189V405.301Z" fill="#1C1931"/>
<path d="M472.984 428.4H458.125V436.7H472.984V428.4Z" fill="#272544"/>
<path d="M447.483 420.1H433.628V428.4H447.483V420.1Z" fill="#272544"/>
<path d="M474.189 405.301H435.636V441.601H474.189V405.301Z" stroke="#1C1A34" stroke-width="6" stroke-miterlimit="10" stroke-linecap="round" stroke-linejoin="round"/>
<path d="M483.928 390.801H425.997V405.301H483.928V390.801Z" fill="#282642"/>
<path d="M483.928 390.801H425.997V405.301H483.928V390.801Z" stroke="#1C1A34" stroke-width="6" stroke-miterlimit="10" stroke-linecap="round" stroke-linejoin="round"/>
<path d="M457.623 623.699H369.271V695.699H457.623V623.699Z" fill="#71B8BC"/>
<path opacity="0.62" d="M369.271 664.599V690.999L420.576 623.699H400.395L369.271 664.599Z" fill="#D0F6FB"/>
<path opacity="0.62" d="M372.584 695.699H382.624L437.543 623.699H427.503L372.584 695.699Z" fill="#D0F6FB"/>
<path d="M457.623 623.699H369.271V695.699H457.623V623.699Z" stroke="#1C1A34" stroke-width="6" stroke-miterlimit="10" stroke-linecap="round" stroke-linejoin="round"/>
<path d="M462.643 699.699H364.251V711.699H462.643V699.699Z" fill="#D14D2F" stroke="#CE4829" stroke-width="6" stroke-miterlimit="10" stroke-linecap="round" stroke-linejoin="round"/>
<path d="M462.643 695.699H364.251V707.699H462.643V695.699Z" fill="#656B82"/>
<path d="M462.643 695.699H364.251V707.699H462.643V695.699Z" stroke="#1C1A34" stroke-width="6" stroke-miterlimit="10" stroke-linecap="round" stroke-linejoin="round"/>
<path d="M875.287 586.199C890.748 611.899 901.993 695.999 853.5 695.999C805.107 695.999 816.352 611.899 831.713 586.199C838.139 575.599 846.572 570.699 853.5 570.699C860.428 570.699 868.861 575.599 875.287 586.199Z" fill="#1FBE6A"/>
<path d="M875.287 586.199C890.748 611.899 901.993 695.999 853.5 695.999C805.107 695.999 816.352 611.899 831.713 586.199C838.139 575.599 846.572 570.699 853.5 570.699C860.428 570.699 868.861 575.599 875.287 586.199Z" stroke="#1C1A34" stroke-width="6" stroke-miterlimit="10" stroke-linecap="round" stroke-linejoin="round"/>
<path d="M829.003 557.2C844.464 587.2 855.709 685.4 807.216 685.4C758.723 685.4 770.068 587.2 785.429 557.2C791.855 544.8 800.288 539.1 807.216 539.1C814.143 539.1 822.577 544.8 829.003 557.2Z" fill="#2CDF78"/>
<path d="M829.003 557.2C844.464 587.2 855.709 685.4 807.216 685.4C758.723 685.4 770.068 587.2 785.429 557.2C791.855 544.8 800.288 539.1 807.216 539.1C814.143 539.1 822.577 544.8 829.003 557.2Z" stroke="#1C1A34" stroke-width="6" stroke-miterlimit="10" stroke-linecap="round" stroke-linejoin="round"/>
<path d="M257.325 682.4C236.442 682.4 220.579 660.999 220.478 637.699C219.876 578.999 234.936 516.599 259.735 452.799C260.839 449.899 264.454 449.999 265.458 452.999C287.044 517.999 297.084 579.899 294.272 639.099C293.369 661.999 277.706 682.4 257.325 682.4Z" fill="#2BCCA0"/>
<path d="M257.325 682.4C236.442 682.4 220.579 660.999 220.478 637.699C219.876 578.999 234.936 516.599 259.735 452.799C260.839 449.899 264.454 449.999 265.458 452.999C287.044 517.999 297.084 579.899 294.272 639.099C293.369 661.999 277.706 682.4 257.325 682.4Z" stroke="#1C1A34" stroke-width="6" stroke-miterlimit="10" stroke-linecap="round" stroke-linejoin="round"/>
<path d="M213.048 511.9C228.51 546.5 239.755 659.7 191.262 659.7C142.768 659.7 154.114 546.5 169.475 511.9C175.9 497.6 184.334 491 191.262 491C198.189 491 206.723 497.6 213.048 511.9Z" fill="#21AA7F"/>
<path d="M213.048 511.9C228.51 546.5 239.755 659.7 191.262 659.7C142.768 659.7 154.114 546.5 169.475 511.9C175.9 497.6 184.334 491 191.262 491C198.189 491 206.723 497.6 213.048 511.9Z" stroke="#1C1A34" stroke-width="6" stroke-miterlimit="10" stroke-linecap="round" stroke-linejoin="round"/>
<path d="M166.764 557.2C182.226 587.2 193.471 685.4 144.978 685.4C96.4842 685.4 107.83 587.2 123.191 557.2C129.616 544.8 138.05 539.1 144.978 539.1C151.905 539.1 160.439 544.8 166.764 557.2Z" fill="#2BCCA0"/>
<path d="M166.764 557.2C182.226 587.2 193.471 685.4 144.978 685.4C96.4842 685.4 107.83 587.2 123.191 557.2C129.616 544.8 138.05 539.1 144.978 539.1C151.905 539.1 160.439 544.8 166.764 557.2Z" stroke="#1C1A34" stroke-width="6" stroke-miterlimit="10" stroke-linecap="round" stroke-linejoin="round"/>
<path d="M736.634 759.7H495.474V502.8L616.054 399.5L736.634 502.8V759.7Z" fill="#FFCC00"/>
<path d="M736.936 563.699H718.864V571.999H736.936V563.699Z" fill="#ED852F"/>
<path d="M726.896 574H708.824V582.3H726.896V574Z" fill="#ED852F"/>
<path d="M716.856 563.699H698.784V571.999H716.856V563.699Z" fill="#ED852F"/>
<path d="M642.66 476.4H624.588V484.7H642.66V476.4Z" fill="#ED852F"/>
<path d="M523.586 574H505.514V582.3H523.586V574Z" fill="#ED852F"/>
<path d="M714.145 715H696.073V723.3H714.145V715Z" fill="#ED852F"/>
<path d="M572.38 514.699H554.308V522.999H572.38V514.699Z" fill="#ED852F"/>
<path d="M513.546 563.699H495.474V571.999H513.546V563.699Z" fill="#ED852F"/>
<path d="M504.509 445.4H486.438V453.7H504.509V445.4Z" fill="#DD1738"/>
<path d="M466.659 568.801H448.587V577.101H466.659V568.801Z" fill="#DD1738"/>
<path d="M623.886 651.4H605.814V659.7H623.886V651.4Z" fill="#ED852F"/>
<path d="M613.846 641.1H595.774V649.4H613.846V641.1Z" fill="#ED852F"/>
<path d="M495.474 502.8V518.4L615.753 416.9L736.634 518.8V502.8L616.054 399.5L495.474 502.8Z" fill="#EA633A"/>
<path d="M736.634 759.7H495.474V502.8L616.054 399.5L736.634 502.8V759.7Z" stroke="#1C1A34" stroke-width="6" stroke-miterlimit="10" stroke-linecap="round" stroke-linejoin="round"/>
<path d="M696.073 623.699H623.785V759.699H696.073V623.699Z" fill="#99393E"/>
<path d="M696.073 623.699H687.84V759.699H696.073V623.699Z" fill="#822E36"/>
<path d="M696.073 623.699H623.785V759.699H696.073V623.699Z" stroke="#1C1A34" stroke-width="6" stroke-miterlimit="10" stroke-linecap="round" stroke-linejoin="round"/>
<path d="M595.774 623.699H533.526V695.699H595.774V623.699Z" fill="#89C6CC"/>
<path opacity="0.92" d="M533.526 683.599L579.208 623.699H559.028L533.526 657.199V683.599Z" fill="#D0F6FB"/>
<path opacity="0.92" d="M595.774 624.299V623.699H586.136L533.526 692.699V695.699H541.257L595.774 624.299Z" fill="#D0F6FB"/>
<path d="M602.802 699.699H526.498V711.699H602.802V699.699Z" fill="#EA633A" stroke="#EA633A" stroke-width="6" stroke-miterlimit="10" stroke-linecap="round" stroke-linejoin="round"/>
<path d="M595.774 623.699H533.526V695.699H595.774V623.699Z" stroke="#1C1A34" stroke-width="6" stroke-miterlimit="10" stroke-linecap="round" stroke-linejoin="round"/>
<path d="M602.802 695.699H526.498V707.699H602.802V695.699Z" fill="#656B82"/>
<path d="M602.802 695.699H526.498V707.699H602.802V695.699Z" stroke="#1C1A34" stroke-width="6" stroke-miterlimit="10" stroke-linecap="round" stroke-linejoin="round"/>
<path d="M616.054 541.699C632.134 541.699 645.17 528.715 645.17 512.699C645.17 496.683 632.134 483.699 616.054 483.699C599.973 483.699 586.938 496.683 586.938 512.699C586.938 528.715 599.973 541.699 616.054 541.699Z" fill="#98AAB5"/>
<path d="M616.053 483.699C613.242 483.699 610.531 484.099 608.021 484.799C620.17 488.299 629.105 499.399 629.105 512.699C629.105 525.899 620.17 537.099 608.021 540.599C610.531 541.299 613.242 541.699 616.053 541.699C632.117 541.699 645.169 528.699 645.169 512.699C645.169 496.599 632.117 483.699 616.053 483.699Z" fill="#7B929E"/>
<path d="M616.054 541.699C632.134 541.699 645.17 528.715 645.17 512.699C645.17 496.683 632.134 483.699 616.054 483.699C599.973 483.699 586.938 496.683 586.938 512.699C586.938 528.715 599.973 541.699 616.054 541.699Z" stroke="#1C1A34" stroke-width="6" stroke-miterlimit="10" stroke-linecap="round" stroke-linejoin="round"/>
<path d="M708.121 759.699H611.737V751.699C611.737 743.999 618.063 737.699 625.793 737.699H694.065C701.796 737.699 708.121 743.999 708.121 751.699V759.699Z" fill="#6E818E"/>
<path d="M708.121 750.301H611.737V759.601H708.121V750.301Z" fill="#5C6F7A"/>
<path d="M708.121 759.699H611.737V751.699C611.737 743.999 618.063 737.699 625.793 737.699H694.065C701.796 737.699 708.121 743.999 708.121 751.699V759.699Z" stroke="#1C1A34" stroke-width="6" stroke-miterlimit="10" stroke-linecap="round" stroke-linejoin="round"/>
<path d="M110.038 759.699H900.588" stroke="#1C1A34" stroke-width="8" stroke-miterlimit="10" stroke-linecap="round" stroke-linejoin="round"/>
<path d="M770.47 521.5C767.056 525.6 760.831 526.2 756.715 522.7L615.753 403.8L474.792 522.7C470.675 526.2 464.551 525.6 461.037 521.5C457.623 517.4 458.125 511.4 462.242 508L600.794 391.3L615.854 378.6L630.813 391.3L769.365 508C773.381 511.3 773.883 517.4 770.47 521.5Z" fill="#FF4B53"/>
<path d="M521.076 479.5H506.618V487.8H521.076V479.5Z" fill="#EA3F54"/>
<path d="M627.5 391.801H614.146V400.101H627.5V391.801Z" fill="#EA3F54"/>
<path d="M770.47 521.5C767.056 525.6 760.831 526.2 756.715 522.7L615.753 403.8L474.792 522.7C470.675 526.2 464.551 525.6 461.037 521.5C457.623 517.4 458.125 511.4 462.242 508L600.794 391.3L615.854 378.6L630.813 391.3L769.365 508C773.381 511.3 773.883 517.4 770.47 521.5Z" stroke="#1C1A34" stroke-width="6" stroke-miterlimit="10" stroke-linecap="round" stroke-linejoin="round"/>
<path d="M807.718 759.7V607.1" stroke="#1C1A34" stroke-width="6" stroke-miterlimit="10" stroke-linecap="round" stroke-linejoin="round"/>
<path d="M854.104 759.7V607.1" stroke="#1C1A34" stroke-width="6" stroke-miterlimit="10" stroke-linecap="round" stroke-linejoin="round"/>
<path d="M616.054 541.699V483.699" stroke="#1C1A34" stroke-width="6" stroke-miterlimit="10" stroke-linecap="round" stroke-linejoin="round"/>
<path d="M586.938 512.699H645.17" stroke="#1C1A34" stroke-width="6" stroke-miterlimit="10" stroke-linecap="round" stroke-linejoin="round"/>
<path d="M351.701 691.699H162.949V695.699H351.701V691.699Z" stroke="#1C1A34" stroke-width="6" stroke-miterlimit="10" stroke-linecap="round" stroke-linejoin="round"/>
<path d="M351.701 720H162.949V724H351.701V720Z" stroke="#1C1A34" stroke-width="6" stroke-miterlimit="10" stroke-linecap="round" stroke-linejoin="round"/>
<path d="M191.864 759.701V554.301" stroke="#1C1A34" stroke-width="6" stroke-miterlimit="10" stroke-linecap="round" stroke-linejoin="round"/>
<path d="M145.58 759.7V607.1" stroke="#1C1A34" stroke-width="6" stroke-miterlimit="10" stroke-linecap="round" stroke-linejoin="round"/>
<path d="M259.734 759.7V569.5" stroke="#1C1A34" stroke-width="6" stroke-miterlimit="10" stroke-linecap="round" stroke-linejoin="round"/>
<path d="M339.252 759.701H325.196V672.701L332.224 660.301L339.252 672.701V759.701Z" fill="#663333"/>
<path d="M339.252 759.701H325.196V672.701L332.224 660.301L339.252 672.701V759.701Z" stroke="#1C1A34" stroke-width="6" stroke-miterlimit="10" stroke-linecap="round" stroke-linejoin="round"/>
<path d="M301.903 759.701H287.847V672.701L294.875 660.301L301.903 672.701V759.701Z" fill="#663333"/>
<path d="M301.903 759.701H287.847V672.701L294.875 660.301L301.903 672.701V759.701Z" stroke="#1C1A34" stroke-width="6" stroke-miterlimit="10" stroke-linecap="round" stroke-linejoin="round"/>
<path d="M264.654 759.701H250.598V672.701L257.626 660.301L264.654 672.701V759.701Z" fill="#663333"/>
<path d="M264.654 759.701H250.598V672.701L257.626 660.301L264.654 672.701V759.701Z" stroke="#1C1A34" stroke-width="6" stroke-miterlimit="10" stroke-linecap="round" stroke-linejoin="round"/>
<path d="M227.406 759.701H213.35V672.701L220.378 660.301L227.406 672.701V759.701Z" fill="#663333"/>
<path d="M227.406 759.701H213.35V672.701L220.378 660.301L227.406 672.701V759.701Z" stroke="#1C1A34" stroke-width="6" stroke-miterlimit="10" stroke-linecap="round" stroke-linejoin="round"/>
<path d="M190.158 759.701H176.102V672.701L183.13 660.301L190.158 672.701V759.701Z" fill="#663333"/>
<path d="M190.158 759.701H176.102V672.701L183.13 660.301L190.158 672.701V759.701Z" stroke="#1C1A34" stroke-width="6" stroke-miterlimit="10" stroke-linecap="round" stroke-linejoin="round"/>
<path d="M635.532 692.5V715" stroke="#1C1A34" stroke-width="6" stroke-miterlimit="10" stroke-linecap="round" stroke-linejoin="round"/>
<path d="M855.006 634.8L863.138 626" stroke="#1C1A34" stroke-width="6" stroke-miterlimit="10" stroke-linecap="round" stroke-linejoin="round"/>
<path d="M854.104 664.701L866.754 656.301" stroke="#1C1A34" stroke-width="6" stroke-miterlimit="10" stroke-linecap="round" stroke-linejoin="round"/>
<path d="M853.501 649.701L845.067 643.301" stroke="#1C1A34" stroke-width="6" stroke-miterlimit="10" stroke-linecap="round" stroke-linejoin="round"/>
<path d="M807.718 626L818.561 618" stroke="#1C1A34" stroke-width="6" stroke-miterlimit="10" stroke-linecap="round" stroke-linejoin="round"/>
<path d="M807.718 655.001L824.585 643.301" stroke="#1C1A34" stroke-width="6" stroke-miterlimit="10" stroke-linecap="round" stroke-linejoin="round"/>
<path d="M807.216 638.7L795.871 628" stroke="#1C1A34" stroke-width="6" stroke-miterlimit="10" stroke-linecap="round" stroke-linejoin="round"/>
<path d="M274.594 619.5L259.734 636.5" stroke="#1C1A34" stroke-width="6" stroke-miterlimit="10" stroke-linecap="round" stroke-linejoin="round"/>
<path d="M269.575 579.6L259.735 594" stroke="#1C1A34" stroke-width="6" stroke-miterlimit="10" stroke-linecap="round" stroke-linejoin="round"/>
<path d="M259.735 616.5L246.482 607.1" stroke="#1C1A34" stroke-width="6" stroke-miterlimit="10" stroke-linecap="round" stroke-linejoin="round"/>
<path d="M679.006 646.5H640.954V683.4H679.006V646.5Z" fill="#89C6CC"/>
<path opacity="0.92" d="M640.954 674.7L662.44 646.5H642.36L640.954 648.3V674.7Z" fill="#D0F6FB"/>
<path opacity="0.92" d="M668.162 646.5L640.954 682.2V683.4H645.07L673.182 646.5H668.162Z" fill="#D0F6FB"/>
<path d="M679.006 646.5H640.954V683.4H679.006V646.5Z" stroke="#1C1A34" stroke-width="6" stroke-miterlimit="10" stroke-linecap="round" stroke-linejoin="round"/>
<path d="M204.314 572L191.864 584.5" stroke="#1C1A34" stroke-width="6" stroke-miterlimit="10" stroke-linecap="round" stroke-linejoin="round"/>
<path d="M191.864 616.5L207.828 601.6" stroke="#1C1A34" stroke-width="6" stroke-miterlimit="10" stroke-linecap="round" stroke-linejoin="round"/>
<path d="M191.864 597.501L180.017 586.801" stroke="#1C1A34" stroke-width="6" stroke-miterlimit="10" stroke-linecap="round" stroke-linejoin="round"/>
<path d="M145.58 647L156.323 634.5" stroke="#1C1A34" stroke-width="6" stroke-miterlimit="10" stroke-linecap="round" stroke-linejoin="round"/>
<path d="M145.078 628L135.038 619.5" stroke="#1C1A34" stroke-width="6" stroke-miterlimit="10" stroke-linecap="round" stroke-linejoin="round"/>
<path opacity="0.32" d="M793 257C790.839 253.993 787.058 251.988 782.845 251.988C780.577 251.988 778.416 252.59 776.579 253.592C776.255 243.769 767.505 235.95 756.918 235.95C753.893 235.95 751.084 236.551 748.599 237.654C744.062 224.523 730.774 215 715.11 215C695.772 215 680 229.535 680 247.578C680 250.885 680.54 253.993 681.512 257H793Z" fill="white"/>
<path opacity="0.32" d="M659.897 62.9003C660 62.1028 660 61.2057 660 60.4082C660 45.1566 647.274 32.7959 631.572 32.7959C626.133 32.7959 621.104 34.2911 616.794 36.7832C613.202 34.2911 608.789 32.7959 604.068 32.7959C602.323 32.7959 600.681 32.9953 599.039 33.394C596.679 19.3386 584.158 8.57278 568.969 8.57278C565.89 8.57278 562.914 8.97151 560.143 9.86867C552.036 3.68829 541.876 0 530.792 0C507.29 0 487.791 16.4478 483.788 38.1788C483.583 38.1788 483.275 38.1788 483.07 38.1788C467.881 38.1788 455.36 48.9446 453 63H659.897V62.9003Z" fill="white"/>
</svg>
