<svg width="29" height="29" viewBox="0 0 29 29" fill="none" xmlns="http://www.w3.org/2000/svg">
<path d="M14.6401 15.4102C14.5471 15.3986 14.453 15.3986 14.3601 15.4102C13.3707 15.3769 12.433 14.9603 11.745 14.2485C11.0571 13.5366 10.6728 12.5852 10.6734 11.5952C10.6734 9.48356 12.3767 7.76856 14.5001 7.76856C15.5027 7.76682 16.4659 8.15917 17.182 8.86103C17.8981 9.56289 18.3097 10.518 18.328 11.5205C18.3464 12.5231 17.9701 13.4926 17.2802 14.2203C16.5903 14.9479 15.6421 15.3752 14.6401 15.4102V15.4102ZM22.3634 23.1102C20.2194 25.0808 17.4121 26.1721 14.5001 26.1669C11.4667 26.1669 8.71339 25.0119 6.63672 23.1102C6.75339 22.0136 7.45339 20.9402 8.70172 20.1002C11.8984 17.9769 17.1251 17.9769 20.2984 20.1002C21.5467 20.9402 22.2467 22.0136 22.3634 23.1102V23.1102Z" stroke="black" stroke-width="1.5" stroke-linecap="round" stroke-linejoin="round"/>
<path d="M14.5007 26.1668C20.9442 26.1668 26.1673 20.9437 26.1673 14.5002C26.1673 8.05666 20.9442 2.8335 14.5007 2.8335C8.05715 2.8335 2.83398 8.05666 2.83398 14.5002C2.83398 20.9437 8.05715 26.1668 14.5007 26.1668Z" stroke="black" stroke-width="1.5" stroke-linecap="round" stroke-linejoin="round"/>
</svg>
