<svg width="163" height="34" viewBox="0 0 163 34" fill="none" xmlns="http://www.w3.org/2000/svg">
<path d="M12.3398 0.880859V26.4746H7.96289V0.880859H12.3398ZM20.373 0.880859V4.39648H0V0.880859H20.373Z" fill="white"/>
<path d="M30.0234 26.8262C28.6172 26.8262 27.3457 26.5977 26.209 26.1406C25.084 25.6719 24.123 25.0215 23.3262 24.1895C22.541 23.3574 21.9375 22.3789 21.5156 21.2539C21.0938 20.1289 20.8828 18.916 20.8828 17.6152V16.9121C20.8828 15.4238 21.0996 14.0762 21.5332 12.8691C21.9668 11.6621 22.5703 10.6309 23.3438 9.77539C24.1172 8.9082 25.0312 8.24609 26.0859 7.78906C27.1406 7.33203 28.2832 7.10352 29.5137 7.10352C30.873 7.10352 32.0625 7.33203 33.082 7.78906C34.1016 8.24609 34.9453 8.89062 35.6133 9.72266C36.293 10.543 36.7969 11.5215 37.125 12.6582C37.4648 13.7949 37.6348 15.0488 37.6348 16.4199V18.2305H22.9395V15.1895H33.4512V14.8555C33.4277 14.0938 33.2754 13.3789 32.9941 12.7109C32.7246 12.043 32.3086 11.5039 31.7461 11.0938C31.1836 10.6836 30.4336 10.4785 29.4961 10.4785C28.793 10.4785 28.166 10.6309 27.6152 10.9355C27.0762 11.2285 26.625 11.6562 26.2617 12.2188C25.8984 12.7812 25.6172 13.4609 25.418 14.2578C25.2305 15.043 25.1367 15.9277 25.1367 16.9121V17.6152C25.1367 18.4473 25.248 19.2207 25.4707 19.9355C25.7051 20.6387 26.0449 21.2539 26.4902 21.7812C26.9355 22.3086 27.4746 22.7246 28.1074 23.0293C28.7402 23.3223 29.4609 23.4688 30.2695 23.4688C31.2891 23.4688 32.1973 23.2637 32.9941 22.8535C33.791 22.4434 34.4824 21.8633 35.0684 21.1133L37.3008 23.2754C36.8906 23.873 36.3574 24.4473 35.7012 24.998C35.0449 25.5371 34.2422 25.9766 33.293 26.3164C32.3555 26.6562 31.2656 26.8262 30.0234 26.8262Z" fill="white"/>
<path d="M49.3242 26.8262C47.918 26.8262 46.6465 26.5977 45.5098 26.1406C44.3848 25.6719 43.4238 25.0215 42.627 24.1895C41.8418 23.3574 41.2383 22.3789 40.8164 21.2539C40.3945 20.1289 40.1836 18.916 40.1836 17.6152V16.9121C40.1836 15.4238 40.4004 14.0762 40.834 12.8691C41.2676 11.6621 41.8711 10.6309 42.6445 9.77539C43.418 8.9082 44.332 8.24609 45.3867 7.78906C46.4414 7.33203 47.584 7.10352 48.8145 7.10352C50.1738 7.10352 51.3633 7.33203 52.3828 7.78906C53.4023 8.24609 54.2461 8.89062 54.9141 9.72266C55.5938 10.543 56.0977 11.5215 56.4258 12.6582C56.7656 13.7949 56.9355 15.0488 56.9355 16.4199V18.2305H42.2402V15.1895H52.752V14.8555C52.7285 14.0938 52.5762 13.3789 52.2949 12.7109C52.0254 12.043 51.6094 11.5039 51.0469 11.0938C50.4844 10.6836 49.7344 10.4785 48.7969 10.4785C48.0938 10.4785 47.4668 10.6309 46.916 10.9355C46.377 11.2285 45.9258 11.6562 45.5625 12.2188C45.1992 12.7812 44.918 13.4609 44.7188 14.2578C44.5312 15.043 44.4375 15.9277 44.4375 16.9121V17.6152C44.4375 18.4473 44.5488 19.2207 44.7715 19.9355C45.0059 20.6387 45.3457 21.2539 45.791 21.7812C46.2363 22.3086 46.7754 22.7246 47.4082 23.0293C48.041 23.3223 48.7617 23.4688 49.5703 23.4688C50.5898 23.4688 51.498 23.2637 52.2949 22.8535C53.0918 22.4434 53.7832 21.8633 54.3691 21.1133L56.6016 23.2754C56.1914 23.873 55.6582 24.4473 55.002 24.998C54.3457 25.5371 53.543 25.9766 52.5938 26.3164C51.6562 26.6562 50.5664 26.8262 49.3242 26.8262Z" fill="white"/>
<path d="M64.4414 11.5156V26.4746H60.2051V7.45508H64.1953L64.4414 11.5156ZM63.6855 16.2617L62.3145 16.2441C62.3262 14.8965 62.5137 13.6602 62.877 12.5352C63.252 11.4102 63.7676 10.4434 64.4238 9.63477C65.0918 8.82617 65.8887 8.20508 66.8145 7.77148C67.7402 7.32617 68.7715 7.10352 69.9082 7.10352C70.8223 7.10352 71.6484 7.23242 72.3867 7.49023C73.1367 7.73633 73.7754 8.14062 74.3027 8.70312C74.8418 9.26562 75.252 9.99805 75.5332 10.9004C75.8145 11.791 75.9551 12.8867 75.9551 14.1875V26.4746H71.7012V14.1699C71.7012 13.2559 71.5664 12.5352 71.2969 12.0078C71.0391 11.4688 70.6582 11.0879 70.1543 10.8652C69.6621 10.6309 69.0469 10.5137 68.3086 10.5137C67.582 10.5137 66.9316 10.666 66.3574 10.9707C65.7832 11.2754 65.2969 11.6914 64.8984 12.2188C64.5117 12.7461 64.2129 13.3555 64.002 14.0469C63.791 14.7383 63.6855 15.4766 63.6855 16.2617Z" fill="white"/>
<path d="M94.166 19.8828C94.166 19.3555 94.084 18.8867 93.9199 18.4766C93.7676 18.0664 93.4922 17.6914 93.0938 17.3516C92.6953 17.0117 92.1328 16.6836 91.4062 16.3672C90.6914 16.0391 89.7773 15.7051 88.6641 15.3652C87.4453 14.9902 86.3203 14.5742 85.2891 14.1172C84.2695 13.6484 83.3789 13.1094 82.6172 12.5C81.8555 11.8789 81.2637 11.1699 80.8418 10.373C80.4199 9.56445 80.209 8.63281 80.209 7.57812C80.209 6.53516 80.4258 5.58594 80.8594 4.73047C81.3047 3.875 81.9316 3.13672 82.7402 2.51562C83.5605 1.88281 84.5273 1.39648 85.6406 1.05664C86.7539 0.705078 87.9844 0.529297 89.332 0.529297C91.2305 0.529297 92.8652 0.880859 94.2363 1.58398C95.6191 2.28711 96.6797 3.23047 97.418 4.41406C98.168 5.59766 98.543 6.9043 98.543 8.33398H94.166C94.166 7.49023 93.9844 6.74609 93.6211 6.10156C93.2695 5.44531 92.7305 4.92969 92.0039 4.55469C91.2891 4.17969 90.3809 3.99219 89.2793 3.99219C88.2363 3.99219 87.3691 4.15039 86.6777 4.4668C85.9863 4.7832 85.4707 5.21094 85.1309 5.75C84.791 6.28906 84.6211 6.89844 84.6211 7.57812C84.6211 8.05859 84.7324 8.49805 84.9551 8.89648C85.1777 9.2832 85.5176 9.64648 85.9746 9.98633C86.4316 10.3145 87.0059 10.625 87.6973 10.918C88.3887 11.2109 89.2031 11.4922 90.1406 11.7617C91.5586 12.1836 92.7949 12.6523 93.8496 13.168C94.9043 13.6719 95.7832 14.2461 96.4863 14.8906C97.1895 15.5352 97.7168 16.2676 98.0684 17.0879C98.4199 17.8965 98.5957 18.8164 98.5957 19.8477C98.5957 20.9258 98.3789 21.8984 97.9453 22.7656C97.5117 23.6211 96.8906 24.3535 96.082 24.9629C95.2852 25.5605 94.3242 26.0234 93.1992 26.3516C92.0859 26.668 90.8438 26.8262 89.4727 26.8262C88.2422 26.8262 87.0293 26.6621 85.834 26.334C84.6504 26.0059 83.5723 25.5078 82.5996 24.8398C81.627 24.1602 80.8535 23.3164 80.2793 22.3086C79.7051 21.2891 79.418 20.0996 79.418 18.7402H83.8301C83.8301 19.5723 83.9707 20.2812 84.252 20.8672C84.5449 21.4531 84.9492 21.9336 85.4648 22.3086C85.9805 22.6719 86.5781 22.9414 87.2578 23.1172C87.9492 23.293 88.6875 23.3809 89.4727 23.3809C90.5039 23.3809 91.3652 23.2344 92.0566 22.9414C92.7598 22.6484 93.2871 22.2383 93.6387 21.7109C93.9902 21.1836 94.166 20.5742 94.166 19.8828Z" fill="white"/>
<path d="M106.33 11.1113V33.7871H102.094V7.45508H105.996L106.33 11.1113ZM118.723 16.7891V17.1582C118.723 18.541 118.559 19.8242 118.23 21.0078C117.914 22.1797 117.439 23.2051 116.807 24.084C116.186 24.9512 115.418 25.625 114.504 26.1055C113.59 26.5859 112.535 26.8262 111.34 26.8262C110.156 26.8262 109.119 26.6094 108.229 26.1758C107.35 25.7305 106.605 25.1035 105.996 24.2949C105.387 23.4863 104.895 22.5371 104.52 21.4473C104.156 20.3457 103.898 19.1387 103.746 17.8262V16.4023C103.898 15.0078 104.156 13.7422 104.52 12.6055C104.895 11.4688 105.387 10.4902 105.996 9.66992C106.605 8.84961 107.35 8.2168 108.229 7.77148C109.107 7.32617 110.133 7.10352 111.305 7.10352C112.5 7.10352 113.561 7.33789 114.486 7.80664C115.412 8.26367 116.191 8.91992 116.824 9.77539C117.457 10.6191 117.932 11.6387 118.248 12.834C118.564 14.0176 118.723 15.3359 118.723 16.7891ZM114.486 17.1582V16.7891C114.486 15.9102 114.404 15.0957 114.24 14.3457C114.076 13.584 113.818 12.916 113.467 12.3418C113.115 11.7676 112.664 11.3223 112.113 11.0059C111.574 10.6777 110.924 10.5137 110.162 10.5137C109.412 10.5137 108.768 10.6426 108.229 10.9004C107.689 11.1465 107.238 11.4922 106.875 11.9375C106.512 12.3828 106.23 12.9043 106.031 13.502C105.832 14.0879 105.691 14.7266 105.609 15.418V18.8281C105.75 19.6719 105.99 20.4453 106.33 21.1484C106.67 21.8516 107.15 22.4141 107.771 22.8359C108.404 23.2461 109.213 23.4512 110.197 23.4512C110.959 23.4512 111.609 23.2871 112.148 22.959C112.688 22.6309 113.127 22.1797 113.467 21.6055C113.818 21.0195 114.076 20.3457 114.24 19.584C114.404 18.8223 114.486 18.0137 114.486 17.1582Z" fill="white"/>
<path d="M126.861 7.45508V26.4746H122.607V7.45508H126.861ZM122.326 2.46289C122.326 1.81836 122.537 1.28516 122.959 0.863281C123.393 0.429688 123.99 0.212891 124.752 0.212891C125.502 0.212891 126.094 0.429688 126.527 0.863281C126.961 1.28516 127.178 1.81836 127.178 2.46289C127.178 3.0957 126.961 3.62305 126.527 4.04492C126.094 4.4668 125.502 4.67773 124.752 4.67773C123.99 4.67773 123.393 4.4668 122.959 4.04492C122.537 3.62305 122.326 3.0957 122.326 2.46289Z" fill="white"/>
<path d="M135.756 11.0762V26.4746H131.52V7.45508H135.562L135.756 11.0762ZM141.574 7.33203L141.539 11.2695C141.281 11.2227 141 11.1875 140.695 11.1641C140.402 11.1406 140.109 11.1289 139.816 11.1289C139.09 11.1289 138.451 11.2344 137.9 11.4453C137.35 11.6445 136.887 11.9375 136.512 12.3242C136.148 12.6992 135.867 13.1562 135.668 13.6953C135.469 14.2344 135.352 14.8379 135.316 15.5059L134.35 15.5762C134.35 14.3809 134.467 13.2734 134.701 12.2539C134.936 11.2344 135.287 10.3379 135.756 9.56445C136.236 8.79102 136.834 8.1875 137.549 7.75391C138.275 7.32031 139.113 7.10352 140.062 7.10352C140.32 7.10352 140.596 7.12695 140.889 7.17383C141.193 7.2207 141.422 7.27344 141.574 7.33203Z" fill="white"/>
<path d="M148.764 7.45508V26.4746H144.51V7.45508H148.764ZM144.229 2.46289C144.229 1.81836 144.439 1.28516 144.861 0.863281C145.295 0.429688 145.893 0.212891 146.654 0.212891C147.404 0.212891 147.996 0.429688 148.43 0.863281C148.863 1.28516 149.08 1.81836 149.08 2.46289C149.08 3.0957 148.863 3.62305 148.43 4.04492C147.996 4.4668 147.404 4.67773 146.654 4.67773C145.893 4.67773 145.295 4.4668 144.861 4.04492C144.439 3.62305 144.229 3.0957 144.229 2.46289Z" fill="white"/>
<path d="M162.123 7.45508V10.5488H151.4V7.45508H162.123ZM154.494 2.79688H158.73V21.2188C158.73 21.8047 158.812 22.2559 158.977 22.5723C159.152 22.877 159.393 23.082 159.697 23.1875C160.002 23.293 160.359 23.3457 160.77 23.3457C161.062 23.3457 161.344 23.3281 161.613 23.293C161.883 23.2578 162.1 23.2227 162.264 23.1875L162.281 26.4219C161.93 26.5273 161.52 26.6211 161.051 26.7031C160.594 26.7852 160.066 26.8262 159.469 26.8262C158.496 26.8262 157.635 26.6562 156.885 26.3164C156.135 25.9648 155.549 25.3965 155.127 24.6113C154.705 23.8262 154.494 22.7832 154.494 21.4824V2.79688Z" fill="white"/>
</svg>
