<svg width="320" height="79" viewBox="0 0 320 79" fill="none" xmlns="http://www.w3.org/2000/svg">
<path d="M45.6246 72.2866C58.7515 72.2866 69.3928 70.6879 69.3928 68.7158C69.3928 66.7437 58.7515 65.145 45.6246 65.145C32.4978 65.145 21.8564 66.7437 21.8564 68.7158C21.8564 70.6879 32.4978 72.2866 45.6246 72.2866Z" fill="#E4E8EC"/>
<path d="M40.2453 21.5284L33.3039 40.3691L24.8564 45.3295L26.1794 57.7491L40.777 51.0341C42.2448 50.3592 43.4725 49.3557 44.3296 48.13C45.1868 46.9044 45.6415 45.5023 45.6457 44.0726L45.7092 22.2291C45.7095 21.9141 45.6376 21.602 45.4974 21.3108C45.3573 21.0197 45.1516 20.7551 44.8923 20.5322C44.633 20.3093 44.3251 20.1325 43.9861 20.0118C43.6472 19.8912 43.2839 19.8291 42.917 19.8291C42.3183 19.829 41.7355 19.9941 41.2545 20.3001C40.7735 20.606 40.4196 21.0366 40.2453 21.5284Z" fill="#FFC195"/>
<path d="M42.9174 19.8291C42.2661 19.8291 41.6354 20.0248 41.1344 20.3821C41.8674 20.3933 42.566 20.6516 43.079 21.1012C43.5921 21.5508 43.8788 22.1557 43.877 22.7853L43.8135 44.6288C43.8093 46.0584 43.3546 47.4605 42.4974 48.6861C41.6402 49.9118 40.4126 50.9154 38.9448 51.5903L26.1504 57.4734L26.1798 57.7491L40.7775 51.0341C42.2452 50.3592 43.4729 49.3557 44.3301 48.13C45.1872 46.9044 45.642 45.5023 45.6461 44.0726L45.7096 22.2291C45.71 21.9141 45.638 21.602 45.4978 21.3108C45.3577 21.0197 45.1521 20.7551 44.8927 20.5322C44.6335 20.3093 44.3255 20.1325 43.9865 20.0118C43.6476 19.8912 43.2843 19.8291 42.9174 19.8291Z" fill="#FFA688"/>
<path d="M40.2453 21.5284L33.3039 40.3691L24.8564 45.3295L26.1794 57.7491L40.777 51.0341C42.2448 50.3592 43.4725 49.3557 44.3296 48.13C45.1868 46.9044 45.6415 45.5023 45.6457 44.0726L45.7092 22.2291C45.7095 21.9141 45.6376 21.602 45.4974 21.3108C45.3573 21.0197 45.1516 20.7551 44.8923 20.5322C44.633 20.3093 44.3251 20.1325 43.9861 20.0118C43.6472 19.8912 43.2839 19.8291 42.917 19.8291C42.3183 19.829 41.7355 19.9941 41.2545 20.3001C40.7735 20.606 40.4196 21.0366 40.2453 21.5284Z" stroke="#171819" stroke-width="2" stroke-linecap="round" stroke-linejoin="round"/>
<path d="M31.4033 43.1175L33.5249 48.6128C33.979 49.7881 34.1967 51.0213 34.1689 52.2594L34.0842 56.079C34.0753 56.4522 33.9418 56.8155 33.6997 57.1255C33.4575 57.4356 33.1167 57.6794 32.718 57.8281L18.642 63.0753L13.7246 46.0666L27.5596 41.5486C27.9313 41.4269 28.3278 41.3712 28.7252 41.3848C29.1227 41.3984 29.5127 41.481 29.8719 41.6277C30.2312 41.7743 30.5521 41.9819 30.8153 42.2379C31.0785 42.4941 31.2785 42.7932 31.4033 43.1175Z" fill="#FFCC00"/>
<path d="M33.5248 48.6125L31.4032 43.1172C31.2355 42.6829 30.9337 42.2959 30.53 41.9973C30.1262 41.6988 29.6356 41.4998 29.1106 41.4219L30.8853 46.0181C31.339 47.1932 31.5568 48.4261 31.5293 49.6639L31.4428 53.4828C31.4347 53.8561 31.3018 54.2195 31.0598 54.5298C30.8179 54.84 30.4773 55.084 30.0784 55.2327L17.71 59.8455L18.6447 63.0758L32.7207 57.8286C33.1194 57.6798 33.46 57.4357 33.702 57.1255C33.944 56.8153 34.0773 56.452 34.086 56.0787L34.1706 52.2591C34.1979 51.0208 33.9795 49.7877 33.5248 48.6125Z" fill="#FF9770"/>
<path d="M31.4033 43.1175L33.5249 48.6128C33.979 49.7881 34.1967 51.0213 34.1689 52.2594L34.0842 56.0791C34.0753 56.4522 33.9418 56.8155 33.6997 57.1255C33.4575 57.4356 33.1167 57.6794 32.718 57.8281L18.642 63.0753L13.7246 46.0666L27.5596 41.5486C27.9313 41.4269 28.3278 41.3712 28.7252 41.3848C29.1227 41.3984 29.5127 41.481 29.8719 41.6277C30.2312 41.7743 30.5521 41.9819 30.8153 42.2379C31.0785 42.4941 31.2785 42.7932 31.4033 43.1175Z" stroke="#171819" stroke-width="2" stroke-linecap="round" stroke-linejoin="round"/>
<path d="M43.4448 30.9561C43.1177 30.9563 42.7947 31.0189 42.4993 31.1394C42.2038 31.2599 41.9432 31.4353 41.7363 31.6528C42.3071 31.6716 42.8472 31.8796 43.2432 32.2332C43.6392 32.5868 43.8601 33.0583 43.8597 33.5488V42.1069H45.6509V32.8505C45.6505 32.3482 45.4179 31.8665 45.0043 31.5113C44.5906 31.1562 44.0297 30.9564 43.4448 30.9561Z" fill="#FFA688"/>
<path d="M38.7148 40.6802L41.3138 32.3623C41.4394 31.9591 41.7163 31.6027 42.1017 31.3485C42.4871 31.0943 42.9594 30.9563 43.4455 30.9561C44.0311 30.9561 44.5927 31.1558 45.0068 31.5113C45.4208 31.8669 45.6535 32.3492 45.6535 32.8521V42.1069" stroke="#171819" stroke-width="2" stroke-linecap="round" stroke-linejoin="round"/>
<path d="M51.1738 21.5284L58.1152 40.3691L66.5626 45.3295L65.2397 57.7491L50.642 51.0341C49.1743 50.3592 47.9466 49.3557 47.0894 48.13C46.2323 46.9044 45.7775 45.5023 45.7734 44.0726L45.709 22.2291C45.7089 21.9141 45.781 21.602 45.9213 21.3109C46.0616 21.0198 46.2673 20.7552 46.5267 20.5324C46.786 20.3095 47.094 20.1327 47.433 20.0121C47.7719 19.8914 48.1352 19.8292 48.5021 19.8291C49.1008 19.829 49.6836 19.9941 50.1646 20.3001C50.6456 20.606 50.9994 21.0366 51.1738 21.5284Z" fill="#FFC195"/>
<path d="M48.5021 19.8291C49.1534 19.8291 49.7841 20.0248 50.2851 20.3821C49.552 20.3933 48.8534 20.6516 48.3401 21.1012C47.8268 21.5508 47.5401 22.1557 47.5416 22.7853L47.606 44.6288C47.6102 46.0584 48.0649 47.4605 48.9221 48.6861C49.7793 49.9118 51.0069 50.9154 52.4747 51.5903L65.2691 57.4726L65.2397 57.7483L50.642 51.0333C49.1743 50.3584 47.9466 49.3549 47.0894 48.1292C46.2323 46.9036 45.7775 45.5015 45.7734 44.0718L45.709 22.2283C45.709 21.5921 46.0032 20.982 46.527 20.5321C47.0508 20.0822 47.7612 19.8293 48.5021 19.8291Z" fill="#FFA688"/>
<path d="M51.1738 21.5284L58.1152 40.3691L66.5626 45.3295L65.2397 57.7491L50.642 51.0341C49.1743 50.3592 47.9466 49.3557 47.0894 48.13C46.2323 46.9044 45.7775 45.5023 45.7734 44.0726L45.709 22.2291C45.7089 21.9141 45.781 21.602 45.9213 21.3109C46.0616 21.0198 46.2673 20.7552 46.5267 20.5324C46.786 20.3095 47.094 20.1327 47.433 20.0121C47.7719 19.8914 48.1352 19.8292 48.5021 19.8291C49.1008 19.829 49.6836 19.9941 50.1646 20.3001C50.6456 20.606 50.9994 21.0366 51.1738 21.5284Z" stroke="#171819" stroke-width="2" stroke-linecap="round" stroke-linejoin="round"/>
<path d="M60.0159 43.1175L57.8943 48.6127C57.4407 49.7881 57.2229 51.0212 57.2503 52.2593L57.3359 56.079C57.3447 56.4521 57.478 56.8153 57.7201 57.1253C57.9621 57.4353 58.3026 57.6792 58.7012 57.828L72.7772 63.0752L77.6946 46.0665L63.8569 41.5493C63.4855 41.428 63.0892 41.3726 62.6922 41.3863C62.2951 41.4 61.9054 41.4826 61.5465 41.6292C61.1876 41.7757 60.867 41.9831 60.6038 42.2389C60.3408 42.4946 60.1408 42.7935 60.0159 43.1175Z" fill="#FFCC00"/>
<path d="M57.8943 48.6125L60.0159 43.1172C60.1836 42.6829 60.4854 42.2959 60.8891 41.9973C61.2929 41.6988 61.7835 41.4998 62.3085 41.4219L60.5357 46.0181C60.0819 47.1932 59.8641 48.4261 59.8917 49.6639L59.9772 53.4836C59.9853 53.8569 60.1183 54.2203 60.3602 54.5306C60.6021 54.8408 60.9428 55.0848 61.3416 55.2334L73.7091 59.8455L72.7717 63.0758L58.7012 57.8278C58.3024 57.679 57.9619 57.4349 57.7198 57.1247C57.4779 56.8145 57.3445 56.4512 57.3359 56.078L57.2503 52.2583C57.223 51.0205 57.4408 49.7877 57.8943 48.6125Z" fill="#FF9770"/>
<path d="M60.0159 43.1175L57.8943 48.6127C57.4407 49.7881 57.2229 51.0212 57.2503 52.2593L57.3359 56.079C57.3447 56.4521 57.478 56.8153 57.7201 57.1253C57.9621 57.4353 58.3026 57.6792 58.7012 57.828L72.7772 63.0752L77.6946 46.0665L63.8569 41.5493C63.4855 41.428 63.0892 41.3726 62.6921 41.3863C62.2951 41.4 61.9054 41.4826 61.5465 41.6292C61.1876 41.7757 60.867 41.9831 60.6038 42.2389C60.3408 42.4946 60.1408 42.7935 60.0159 43.1175Z" stroke="#171819" stroke-width="2" stroke-linecap="round" stroke-linejoin="round"/>
<path d="M47.9747 30.9561C48.3013 30.9566 48.6238 31.0194 48.9187 31.1399C49.2137 31.2604 49.4738 31.4356 49.6804 31.6528C49.1096 31.6716 48.5695 31.8796 48.1735 32.2332C47.7776 32.5868 47.5566 33.0583 47.557 33.5488V42.1069H45.7686V32.8505C45.769 32.3482 46.0016 31.8665 46.4152 31.5113C46.8289 31.1562 47.3898 30.9564 47.9747 30.9561Z" fill="#FFA688"/>
<path d="M52.7052 40.6802L50.1062 32.3623C49.9807 31.9591 49.7037 31.6027 49.3184 31.3485C48.933 31.0943 48.4606 30.9563 47.9746 30.9561C47.389 30.9561 46.8274 31.1558 46.4133 31.5113C45.9993 31.8669 45.7666 32.3492 45.7666 32.8521V42.1069" stroke="#171819" stroke-width="2" stroke-linecap="round" stroke-linejoin="round"/>
<path d="M105.131 26.4062V52H100.754V26.4062H105.131ZM113.164 26.4062V29.9219H92.791V26.4062H113.164ZM122.814 52.3516C121.408 52.3516 120.137 52.123 119 51.666C117.875 51.1973 116.914 50.5469 116.117 49.7148C115.332 48.8828 114.729 47.9043 114.307 46.7793C113.885 45.6543 113.674 44.4414 113.674 43.1406V42.4375C113.674 40.9492 113.891 39.6016 114.324 38.3945C114.758 37.1875 115.361 36.1562 116.135 35.3008C116.908 34.4336 117.822 33.7715 118.877 33.3145C119.932 32.8574 121.074 32.6289 122.305 32.6289C123.664 32.6289 124.854 32.8574 125.873 33.3145C126.893 33.7715 127.736 34.416 128.404 35.248C129.084 36.0684 129.588 37.0469 129.916 38.1836C130.256 39.3203 130.426 40.5742 130.426 41.9453V43.7559H115.73V40.7148H126.242V40.3809C126.219 39.6191 126.066 38.9043 125.785 38.2363C125.516 37.5684 125.1 37.0293 124.537 36.6191C123.975 36.209 123.225 36.0039 122.287 36.0039C121.584 36.0039 120.957 36.1562 120.406 36.4609C119.867 36.7539 119.416 37.1816 119.053 37.7441C118.689 38.3066 118.408 38.9863 118.209 39.7832C118.021 40.5684 117.928 41.4531 117.928 42.4375V43.1406C117.928 43.9727 118.039 44.7461 118.262 45.4609C118.496 46.1641 118.836 46.7793 119.281 47.3066C119.727 47.834 120.266 48.25 120.898 48.5547C121.531 48.8477 122.252 48.9941 123.061 48.9941C124.08 48.9941 124.988 48.7891 125.785 48.3789C126.582 47.9688 127.273 47.3887 127.859 46.6387L130.092 48.8008C129.682 49.3984 129.148 49.9727 128.492 50.5234C127.836 51.0625 127.033 51.502 126.084 51.8418C125.146 52.1816 124.057 52.3516 122.814 52.3516ZM142.115 52.3516C140.709 52.3516 139.438 52.123 138.301 51.666C137.176 51.1973 136.215 50.5469 135.418 49.7148C134.633 48.8828 134.029 47.9043 133.607 46.7793C133.186 45.6543 132.975 44.4414 132.975 43.1406V42.4375C132.975 40.9492 133.191 39.6016 133.625 38.3945C134.059 37.1875 134.662 36.1562 135.436 35.3008C136.209 34.4336 137.123 33.7715 138.178 33.3145C139.232 32.8574 140.375 32.6289 141.605 32.6289C142.965 32.6289 144.154 32.8574 145.174 33.3145C146.193 33.7715 147.037 34.416 147.705 35.248C148.385 36.0684 148.889 37.0469 149.217 38.1836C149.557 39.3203 149.727 40.5742 149.727 41.9453V43.7559H135.031V40.7148H145.543V40.3809C145.52 39.6191 145.367 38.9043 145.086 38.2363C144.816 37.5684 144.4 37.0293 143.838 36.6191C143.275 36.209 142.525 36.0039 141.588 36.0039C140.885 36.0039 140.258 36.1562 139.707 36.4609C139.168 36.7539 138.717 37.1816 138.354 37.7441C137.99 38.3066 137.709 38.9863 137.51 39.7832C137.322 40.5684 137.229 41.4531 137.229 42.4375V43.1406C137.229 43.9727 137.34 44.7461 137.562 45.4609C137.797 46.1641 138.137 46.7793 138.582 47.3066C139.027 47.834 139.566 48.25 140.199 48.5547C140.832 48.8477 141.553 48.9941 142.361 48.9941C143.381 48.9941 144.289 48.7891 145.086 48.3789C145.883 47.9688 146.574 47.3887 147.16 46.6387L149.393 48.8008C148.982 49.3984 148.449 49.9727 147.793 50.5234C147.137 51.0625 146.334 51.502 145.385 51.8418C144.447 52.1816 143.357 52.3516 142.115 52.3516ZM157.232 37.041V52H152.996V32.9805H156.986L157.232 37.041ZM156.477 41.7871L155.105 41.7695C155.117 40.4219 155.305 39.1855 155.668 38.0605C156.043 36.9355 156.559 35.9688 157.215 35.1602C157.883 34.3516 158.68 33.7305 159.605 33.2969C160.531 32.8516 161.562 32.6289 162.699 32.6289C163.613 32.6289 164.439 32.7578 165.178 33.0156C165.928 33.2617 166.566 33.666 167.094 34.2285C167.633 34.791 168.043 35.5234 168.324 36.4258C168.605 37.3164 168.746 38.4121 168.746 39.7129V52H164.492V39.6953C164.492 38.7812 164.357 38.0605 164.088 37.5332C163.83 36.9941 163.449 36.6133 162.945 36.3906C162.453 36.1562 161.838 36.0391 161.1 36.0391C160.373 36.0391 159.723 36.1914 159.148 36.4961C158.574 36.8008 158.088 37.2168 157.689 37.7441C157.303 38.2715 157.004 38.8809 156.793 39.5723C156.582 40.2637 156.477 41.002 156.477 41.7871ZM186.957 45.4082C186.957 44.8809 186.875 44.4121 186.711 44.002C186.559 43.5918 186.283 43.2168 185.885 42.877C185.486 42.5371 184.924 42.209 184.197 41.8926C183.482 41.5645 182.568 41.2305 181.455 40.8906C180.236 40.5156 179.111 40.0996 178.08 39.6426C177.061 39.1738 176.17 38.6348 175.408 38.0254C174.646 37.4043 174.055 36.6953 173.633 35.8984C173.211 35.0898 173 34.1582 173 33.1035C173 32.0605 173.217 31.1113 173.65 30.2559C174.096 29.4004 174.723 28.6621 175.531 28.041C176.352 27.4082 177.318 26.9219 178.432 26.582C179.545 26.2305 180.775 26.0547 182.123 26.0547C184.021 26.0547 185.656 26.4062 187.027 27.1094C188.41 27.8125 189.471 28.7559 190.209 29.9395C190.959 31.123 191.334 32.4297 191.334 33.8594H186.957C186.957 33.0156 186.775 32.2715 186.412 31.627C186.061 30.9707 185.521 30.4551 184.795 30.0801C184.08 29.7051 183.172 29.5176 182.07 29.5176C181.027 29.5176 180.16 29.6758 179.469 29.9922C178.777 30.3086 178.262 30.7363 177.922 31.2754C177.582 31.8145 177.412 32.4238 177.412 33.1035C177.412 33.584 177.523 34.0234 177.746 34.4219C177.969 34.8086 178.309 35.1719 178.766 35.5117C179.223 35.8398 179.797 36.1504 180.488 36.4434C181.18 36.7363 181.994 37.0176 182.932 37.2871C184.35 37.709 185.586 38.1777 186.641 38.6934C187.695 39.1973 188.574 39.7715 189.277 40.416C189.98 41.0605 190.508 41.793 190.859 42.6133C191.211 43.4219 191.387 44.3418 191.387 45.373C191.387 46.4512 191.17 47.4238 190.736 48.291C190.303 49.1465 189.682 49.8789 188.873 50.4883C188.076 51.0859 187.115 51.5488 185.99 51.877C184.877 52.1934 183.635 52.3516 182.264 52.3516C181.033 52.3516 179.82 52.1875 178.625 51.8594C177.441 51.5312 176.363 51.0332 175.391 50.3652C174.418 49.6855 173.645 48.8418 173.07 47.834C172.496 46.8145 172.209 45.625 172.209 44.2656H176.621C176.621 45.0977 176.762 45.8066 177.043 46.3926C177.336 46.9785 177.74 47.459 178.256 47.834C178.771 48.1973 179.369 48.4668 180.049 48.6426C180.74 48.8184 181.479 48.9062 182.264 48.9062C183.295 48.9062 184.156 48.7598 184.848 48.4668C185.551 48.1738 186.078 47.7637 186.43 47.2363C186.781 46.709 186.957 46.0996 186.957 45.4082ZM199.121 36.6367V59.3125H194.885V32.9805H198.787L199.121 36.6367ZM211.514 42.3145V42.6836C211.514 44.0664 211.35 45.3496 211.021 46.5332C210.705 47.7051 210.23 48.7305 209.598 49.6094C208.977 50.4766 208.209 51.1504 207.295 51.6309C206.381 52.1113 205.326 52.3516 204.131 52.3516C202.947 52.3516 201.91 52.1348 201.02 51.7012C200.141 51.2559 199.396 50.6289 198.787 49.8203C198.178 49.0117 197.686 48.0625 197.311 46.9727C196.947 45.8711 196.689 44.6641 196.537 43.3516V41.9277C196.689 40.5332 196.947 39.2676 197.311 38.1309C197.686 36.9941 198.178 36.0156 198.787 35.1953C199.396 34.375 200.141 33.7422 201.02 33.2969C201.898 32.8516 202.924 32.6289 204.096 32.6289C205.291 32.6289 206.352 32.8633 207.277 33.332C208.203 33.7891 208.982 34.4453 209.615 35.3008C210.248 36.1445 210.723 37.1641 211.039 38.3594C211.355 39.543 211.514 40.8613 211.514 42.3145ZM207.277 42.6836V42.3145C207.277 41.4355 207.195 40.6211 207.031 39.8711C206.867 39.1094 206.609 38.4414 206.258 37.8672C205.906 37.293 205.455 36.8477 204.904 36.5312C204.365 36.2031 203.715 36.0391 202.953 36.0391C202.203 36.0391 201.559 36.168 201.02 36.4258C200.48 36.6719 200.029 37.0176 199.666 37.4629C199.303 37.9082 199.021 38.4297 198.822 39.0273C198.623 39.6133 198.482 40.252 198.4 40.9434V44.3535C198.541 45.1973 198.781 45.9707 199.121 46.6738C199.461 47.377 199.941 47.9395 200.562 48.3613C201.195 48.7715 202.004 48.9766 202.988 48.9766C203.75 48.9766 204.4 48.8125 204.939 48.4844C205.479 48.1562 205.918 47.7051 206.258 47.1309C206.609 46.5449 206.867 45.8711 207.031 45.1094C207.195 44.3477 207.277 43.5391 207.277 42.6836ZM219.652 32.9805V52H215.398V32.9805H219.652ZM215.117 27.9883C215.117 27.3438 215.328 26.8105 215.75 26.3887C216.184 25.9551 216.781 25.7383 217.543 25.7383C218.293 25.7383 218.885 25.9551 219.318 26.3887C219.752 26.8105 219.969 27.3438 219.969 27.9883C219.969 28.6211 219.752 29.1484 219.318 29.5703C218.885 29.9922 218.293 30.2031 217.543 30.2031C216.781 30.2031 216.184 29.9922 215.75 29.5703C215.328 29.1484 215.117 28.6211 215.117 27.9883ZM228.547 36.6016V52H224.311V32.9805H228.354L228.547 36.6016ZM234.365 32.8574L234.33 36.7949C234.072 36.748 233.791 36.7129 233.486 36.6895C233.193 36.666 232.9 36.6543 232.607 36.6543C231.881 36.6543 231.242 36.7598 230.691 36.9707C230.141 37.1699 229.678 37.4629 229.303 37.8496C228.939 38.2246 228.658 38.6816 228.459 39.2207C228.26 39.7598 228.143 40.3633 228.107 41.0312L227.141 41.1016C227.141 39.9062 227.258 38.7988 227.492 37.7793C227.727 36.7598 228.078 35.8633 228.547 35.0898C229.027 34.3164 229.625 33.7129 230.34 33.2793C231.066 32.8457 231.904 32.6289 232.854 32.6289C233.111 32.6289 233.387 32.6523 233.68 32.6992C233.984 32.7461 234.213 32.7988 234.365 32.8574ZM241.555 32.9805V52H237.301V32.9805H241.555ZM237.02 27.9883C237.02 27.3438 237.23 26.8105 237.652 26.3887C238.086 25.9551 238.684 25.7383 239.445 25.7383C240.195 25.7383 240.787 25.9551 241.221 26.3887C241.654 26.8105 241.871 27.3438 241.871 27.9883C241.871 28.6211 241.654 29.1484 241.221 29.5703C240.787 29.9922 240.195 30.2031 239.445 30.2031C238.684 30.2031 238.086 29.9922 237.652 29.5703C237.23 29.1484 237.02 28.6211 237.02 27.9883ZM254.914 32.9805V36.0742H244.191V32.9805H254.914ZM247.285 28.3223H251.521V46.7441C251.521 47.3301 251.604 47.7812 251.768 48.0977C251.943 48.4023 252.184 48.6074 252.488 48.7129C252.793 48.8184 253.15 48.8711 253.561 48.8711C253.854 48.8711 254.135 48.8535 254.404 48.8184C254.674 48.7832 254.891 48.748 255.055 48.7129L255.072 51.9473C254.721 52.0527 254.311 52.1465 253.842 52.2285C253.385 52.3105 252.857 52.3516 252.26 52.3516C251.287 52.3516 250.426 52.1816 249.676 51.8418C248.926 51.4902 248.34 50.9219 247.918 50.1367C247.496 49.3516 247.285 48.3086 247.285 47.0078V28.3223Z" fill="white"/>
</svg>
