<svg width="303" height="321" viewBox="0 0 303 321" fill="none" xmlns="http://www.w3.org/2000/svg">
<path opacity="0.23" d="M263.693 148.526C263.693 145.01 266.983 142.137 271.01 142.137H272.006V126.413H264.559C257.934 126.413 252.564 131.1 252.564 136.883V157.862C252.564 158.732 253.387 159.45 254.383 159.45H261.961C262.956 159.45 263.779 158.732 263.779 157.862V148.526H263.693Z" fill="black"/>
<path opacity="0.23" d="M277.765 129.399H272.006V139.794H277.765V129.399Z" fill="black"/>
<path opacity="0.23" d="M282.962 145.048H280.321C278.892 145.048 277.723 144.028 277.723 142.78V126.375C277.723 125.128 278.892 124.107 280.321 124.107H282.962C288.634 124.107 293.224 128.114 293.224 133.066V136.052C293.224 141.041 288.634 145.048 282.962 145.048Z" fill="black"/>
<path opacity="0.21" d="M167.134 287.289C167.134 290.805 170.425 293.678 174.452 293.678H175.448V309.402H168C161.375 309.402 156.006 304.715 156.006 298.932V277.953C156.006 277.083 156.829 276.365 157.824 276.365H165.402C166.398 276.365 167.221 277.083 167.221 277.953V287.289H167.134Z" fill="black"/>
<path opacity="0.21" d="M181.206 296.021H175.447V306.416H181.206V296.021Z" fill="black"/>
<path opacity="0.21" d="M186.401 290.767H183.76C182.331 290.767 181.162 291.788 181.162 293.035V309.44C181.162 310.688 182.331 311.708 183.76 311.708H186.401C192.074 311.708 196.664 307.701 196.664 302.75V299.763C196.664 294.774 192.074 290.767 186.401 290.767Z" fill="black"/>
<g opacity="0.23">
<path opacity="0.23" d="M162.717 278.898H160.119V249.15C160.119 237.205 171.247 227.49 184.93 227.49C190.862 227.49 196.448 225.449 200.648 221.782C204.848 218.116 207.143 213.24 207.143 208.023L207.1 194.113H209.698L209.741 208.023C209.741 213.807 207.186 219.288 202.467 223.37C197.833 227.49 191.598 229.758 184.93 229.758C172.676 229.758 162.717 238.452 162.717 249.15V278.898Z" fill="black"/>
</g>
<g opacity="0.23">
<path opacity="0.23" d="M233.513 224.239C219.051 224.239 207.316 213.996 207.316 201.37V194.377C207.316 193.735 207.879 193.243 208.615 193.243C209.352 193.243 209.914 193.735 209.914 194.377V201.37C209.914 212.748 220.48 221.971 233.513 221.971C246.546 221.971 257.111 212.748 257.111 201.37V159.223C257.111 158.581 257.674 158.089 258.41 158.089C259.147 158.089 259.709 158.581 259.709 159.223V201.37C259.709 213.958 247.975 224.239 233.513 224.239Z" fill="black"/>
</g>
<path d="M162.717 274.74H160.119V244.992C160.119 233.047 171.247 223.332 184.93 223.332C190.862 223.332 196.448 221.291 200.648 217.624C204.848 213.958 207.143 209.082 207.143 203.865L207.1 181.261H209.698L209.741 203.865C209.741 209.649 207.186 215.13 202.467 219.212C197.833 223.332 191.598 225.6 184.93 225.6C172.676 225.6 162.717 234.294 162.717 244.992V274.74Z" fill="#EEF2F4"/>
<path d="M162.717 274.74H160.119V244.992C160.119 233.047 171.247 223.332 184.93 223.332C190.862 223.332 196.448 221.291 200.648 217.624C204.848 213.958 207.143 209.082 207.143 203.865L207.1 181.261H209.698L209.741 203.865C209.741 209.649 207.186 215.13 202.467 219.212C197.833 223.332 191.598 225.6 184.93 225.6C172.676 225.6 162.717 234.294 162.717 244.992V274.74Z" stroke="#4C005F" stroke-width="3" stroke-miterlimit="10" stroke-linecap="round" stroke-linejoin="round"/>
<path d="M233.513 219.93C219.051 219.93 207.316 209.686 207.316 197.061V181.374C207.316 180.731 207.879 180.24 208.615 180.24C209.352 180.24 209.914 180.731 209.914 181.374V197.061C209.914 208.439 220.48 217.662 233.513 217.662C246.546 217.662 257.111 208.439 257.111 197.061V154.914C257.111 154.271 257.674 153.78 258.41 153.78C259.147 153.78 259.709 154.271 259.709 154.914V197.061C259.709 209.686 247.975 219.93 233.513 219.93Z" fill="#EEF2F4"/>
<path d="M233.513 219.93C219.051 219.93 207.316 209.686 207.316 197.061V181.374C207.316 180.731 207.879 180.24 208.615 180.24C209.352 180.24 209.914 180.731 209.914 181.374V197.061C209.914 208.439 220.48 217.662 233.513 217.662C246.546 217.662 257.111 208.439 257.111 197.061V154.914C257.111 154.271 257.674 153.78 258.41 153.78C259.147 153.78 259.709 154.271 259.709 154.914V197.061C259.709 209.686 247.975 219.93 233.513 219.93Z" stroke="#4C005F" stroke-width="3" stroke-miterlimit="10" stroke-linecap="round" stroke-linejoin="round"/>
<g opacity="0.23">
<path opacity="0.23" d="M208.485 168.258C207.749 168.258 207.186 167.766 207.186 167.124V55.5001C207.186 46.3903 198.699 38.9816 188.264 38.9816C177.828 38.9816 169.341 46.3903 169.341 55.5001V94.9633C169.341 105.169 159.815 113.485 148.124 113.485H147.562C141.889 113.485 136.563 111.558 132.58 108.08C128.596 104.602 126.345 99.8773 126.345 94.9255V33.5761C126.345 24.4663 117.858 17.0576 107.422 17.0576C96.9871 17.0576 88.5003 24.4663 88.5003 33.5761V112.314C88.5003 112.956 87.9374 113.448 87.2013 113.448C86.4652 113.448 85.9023 112.956 85.9023 112.314V33.5761C85.9023 23.2189 95.5582 14.7896 107.422 14.7896C119.287 14.7896 128.943 23.2189 128.943 33.5761V94.9633C128.943 99.3103 130.891 103.393 134.398 106.455C137.906 109.516 142.582 111.217 147.562 111.217H148.168C158.43 111.217 166.787 103.922 166.787 94.9633V55.5001C166.787 45.1429 176.443 36.7136 188.307 36.7136C200.171 36.7136 209.827 45.1429 209.827 55.5001V167.124C209.784 167.728 209.221 168.258 208.485 168.258Z" fill="black"/>
</g>
<path d="M208.615 164.213C207.879 164.213 207.316 163.721 207.316 163.079V51.4552C207.316 42.3454 198.829 34.9366 188.394 34.9366C177.959 34.9366 169.472 42.3454 169.472 51.4552V90.9184C169.472 101.124 159.946 109.44 148.255 109.44H147.649C141.976 109.44 136.651 107.513 132.667 104.035C128.683 100.557 126.475 95.908 126.475 90.9562V29.5312C126.475 20.4214 117.988 13.0126 107.553 13.0126C97.1177 13.0126 88.6742 20.4214 88.6742 29.5312V108.269C88.6742 108.911 88.1113 109.403 87.3752 109.403C86.6391 109.403 86.0762 108.911 86.0762 108.269V29.5312C86.0762 19.174 95.7321 10.7446 107.596 10.7446C119.46 10.7446 129.116 19.174 129.116 29.5312V90.9184C129.116 95.2654 131.065 99.3478 134.572 102.41C138.079 105.471 142.756 107.172 147.735 107.172H148.342C158.604 107.172 166.961 99.877 166.961 90.9184V51.4552C166.961 41.098 176.616 32.6686 188.481 32.6686C200.345 32.6686 210.001 41.098 210.001 51.4552V163.079C209.914 163.721 209.351 164.213 208.615 164.213Z" fill="#EEF2F4"/>
<path d="M208.615 164.213C207.879 164.213 207.316 163.721 207.316 163.079V51.4552C207.316 42.3454 198.829 34.9366 188.394 34.9366C177.959 34.9366 169.472 42.3454 169.472 51.4552V90.9184C169.472 101.124 159.946 109.44 148.255 109.44H147.649C141.976 109.44 136.651 107.513 132.667 104.035C128.683 100.557 126.475 95.908 126.475 90.9562V29.5312C126.475 20.4214 117.988 13.0126 107.553 13.0126C97.1177 13.0126 88.6742 20.4214 88.6742 29.5312V108.269C88.6742 108.911 88.1113 109.403 87.3752 109.403C86.6391 109.403 86.0762 108.911 86.0762 108.269V29.5312C86.0762 19.174 95.7321 10.7446 107.596 10.7446C119.46 10.7446 129.116 19.174 129.116 29.5312V90.9184C129.116 95.2654 131.065 99.3478 134.572 102.41C138.079 105.471 142.756 107.172 147.735 107.172H148.342C158.604 107.172 166.961 99.877 166.961 90.9184V51.4552C166.961 41.098 176.616 32.6686 188.481 32.6686C200.345 32.6686 210.001 41.098 210.001 51.4552V163.079C209.914 163.721 209.351 164.213 208.615 164.213Z" stroke="#4C005F" stroke-width="3" stroke-miterlimit="10" stroke-linecap="round" stroke-linejoin="round"/>
<path opacity="0.23" d="M95.5144 107.021H84.9492V119.231H95.5144V107.021Z" fill="black"/>
<path d="M92.7 105.509H82.1348V117.719H92.7V105.509Z" fill="#FDE1FF"/>
<path d="M92.7 105.509H82.1348V110.423H92.7V105.509Z" fill="white"/>
<path d="M92.7 105.509H82.1348V110.423H92.7V105.509Z" stroke="#4C005F" stroke-width="3" stroke-miterlimit="10" stroke-linecap="round" stroke-linejoin="round"/>
<path d="M92.7 105.509H82.1348V117.719H92.7V105.509Z" stroke="#4C005F" stroke-width="6" stroke-miterlimit="10" stroke-linecap="round" stroke-linejoin="round"/>
<path opacity="0.23" d="M104.564 248.507H28.0099C23.2036 248.507 19.3066 245.105 19.3066 240.909V132.99C19.3066 128.794 23.2036 125.392 28.0099 125.392H104.564C109.371 125.392 113.268 128.794 113.268 132.99V240.871C113.268 245.105 109.371 248.507 104.564 248.507Z" fill="black"/>
<path d="M102.097 240.682H25.5861C20.7798 240.682 16.8828 237.28 16.8828 233.084V125.203C16.8828 121.007 20.7798 117.605 25.5861 117.605H102.097C106.904 117.605 110.801 121.007 110.801 125.203V233.084C110.801 237.28 106.904 240.682 102.097 240.682Z" fill="#EEF2F4"/>
<path d="M102.097 240.682H25.5861C20.7798 240.682 16.8828 237.28 16.8828 233.084V125.203C16.8828 121.007 20.7798 117.605 25.5861 117.605H102.097C106.904 117.605 110.801 121.007 110.801 125.203V233.084C110.801 237.28 106.904 240.682 102.097 240.682Z" fill="#F5F5F5"/>
<g opacity="0.76">
<g opacity="0.76">
<path opacity="0.76" d="M21.0399 233.084V125.203C21.0399 121.007 24.9369 117.605 29.7432 117.605H25.5431C20.7368 117.605 16.8398 121.007 16.8398 125.203V233.084C16.8398 237.28 20.7368 240.682 25.5431 240.682H29.7432C24.9369 240.682 21.0399 237.28 21.0399 233.084Z" fill="white"/>
</g>
</g>
<g opacity="0.1">
<g opacity="0.1">
<path opacity="0.1" d="M106.6 233.084V125.203C106.6 121.007 102.703 117.605 97.8965 117.605H102.097C106.903 117.605 110.8 121.007 110.8 125.203V233.084C110.8 237.28 106.903 240.682 102.097 240.682H97.8965C102.703 240.682 106.6 237.28 106.6 233.084Z" fill="black"/>
</g>
</g>
<g opacity="0.04">
<path opacity="0.04" d="M102.097 235.768H25.5861C20.7798 235.768 16.8828 232.366 16.8828 228.17V233.084C16.8828 237.28 20.7798 240.682 25.5861 240.682H102.097C106.904 240.682 110.801 237.28 110.801 233.084V228.17C110.801 232.366 106.904 235.768 102.097 235.768Z" fill="black"/>
</g>
<g opacity="0.38">
<path opacity="0.38" d="M102.097 122.519H25.5861C20.7798 122.519 16.8828 125.921 16.8828 130.117V125.203C16.8828 121.007 20.7798 117.605 25.5861 117.605H102.097C106.904 117.605 110.801 121.007 110.801 125.203V130.117C110.801 125.921 106.904 122.519 102.097 122.519Z" fill="white"/>
</g>
<path d="M102.097 240.682H25.5861C20.7798 240.682 16.8828 237.28 16.8828 233.084V125.203C16.8828 121.007 20.7798 117.605 25.5861 117.605H102.097C106.904 117.605 110.801 121.007 110.801 125.203V233.084C110.801 237.28 106.904 240.682 102.097 240.682Z" stroke="#4C005F" stroke-width="6" stroke-miterlimit="10"/>
<path d="M90.3629 172.151H37.3204C34.376 172.151 31.9512 170.072 31.9512 167.464V136.959C31.9512 134.389 34.3327 132.272 37.3204 132.272H90.3629C93.3073 132.272 95.7321 134.351 95.7321 136.959V167.464C95.6888 170.072 93.3073 172.151 90.3629 172.151Z" fill="#B296A3"/>
<path opacity="0.2" d="M31.9512 150.453L52.7352 132.234H50.1372L31.9512 148.185V150.453Z" fill="#EEF2F4"/>
<path opacity="0.2" d="M31.9512 156.917L60.1828 132.234H55.7229L31.9512 153.062V156.917Z" fill="#EEF2F4"/>
<path d="M90.3629 172.151H37.3204C34.376 172.151 31.9512 170.072 31.9512 167.464V136.959C31.9512 134.389 34.3327 132.272 37.3204 132.272H90.3629C93.3073 132.272 95.7321 134.351 95.7321 136.959V167.464C95.6888 170.072 93.3073 172.151 90.3629 172.151Z" stroke="#4C005F" stroke-width="3" stroke-miterlimit="10"/>
<path d="M167.134 282.375C167.134 285.891 170.425 288.764 174.452 288.764H175.448V304.488H168C161.375 304.488 156.006 299.801 156.006 294.018V273.039C156.006 272.169 156.829 271.451 157.824 271.451H165.402C166.398 271.451 167.221 272.169 167.221 273.039V282.375H167.134Z" fill="#EEF2F4"/>
<path opacity="0.1" d="M174.451 288.688C170.381 288.688 167.047 285.778 167.047 282.224V272.774C167.047 271.943 166.267 271.3 165.358 271.3H164.016V274.324V284.757C164.016 287.252 165.574 289.444 167.869 290.616C170.554 291.977 172.243 294.434 172.243 297.118V304.526H175.274V288.65H174.451V288.688Z" fill="black"/>
<path d="M167.134 282.375C167.134 285.891 170.425 288.764 174.452 288.764H175.448V304.488H168C161.375 304.488 156.006 299.801 156.006 294.018V273.039C156.006 272.169 156.829 271.451 157.824 271.451H165.402C166.398 271.451 167.221 272.169 167.221 273.039V282.375H167.134Z" stroke="#4C005F" stroke-width="6" stroke-miterlimit="10" stroke-linecap="round" stroke-linejoin="round"/>
<path d="M181.206 291.107H175.447V301.502H181.206V291.107Z" fill="#D6DADC"/>
<path d="M181.206 291.107H175.447V301.502H181.206V291.107Z" stroke="#4C005F" stroke-width="6" stroke-miterlimit="10" stroke-linecap="round" stroke-linejoin="round"/>
<path d="M186.401 285.853H183.76C182.331 285.853 181.162 286.874 181.162 288.121V304.526C181.162 305.774 182.331 306.794 183.76 306.794H186.401C192.074 306.794 196.664 302.787 196.664 297.836V294.849C196.664 289.86 192.074 285.853 186.401 285.853Z" stroke="#4C005F" stroke-width="6" stroke-miterlimit="10" stroke-linecap="round" stroke-linejoin="round"/>
<path d="M186.401 285.853H183.76C182.331 285.853 181.162 286.874 181.162 288.121V304.526C181.162 305.774 182.331 306.794 183.76 306.794H186.401C192.074 306.794 196.664 302.787 196.664 297.836V294.849C196.664 289.86 192.074 285.853 186.401 285.853Z" fill="#4C005F"/>
<path d="M167.134 282.375C167.134 285.891 170.425 288.764 174.452 288.764H175.448V304.488H168C161.375 304.488 156.006 299.801 156.006 294.018V273.039C156.006 272.169 156.829 271.451 157.824 271.451H165.402C166.398 271.451 167.221 272.169 167.221 273.039V282.375H167.134Z" fill="#EEF2F4"/>
<path opacity="0.1" d="M174.451 288.688C170.381 288.688 167.047 285.778 167.047 282.224V272.774C167.047 271.943 166.267 271.3 165.358 271.3H164.016V274.324V284.757C164.016 287.252 165.574 289.444 167.869 290.616C170.554 291.977 172.243 294.434 172.243 297.118V304.526H175.274V288.65H174.451V288.688Z" fill="black"/>
<path d="M167.134 282.375C167.134 285.891 170.425 288.764 174.452 288.764H175.448V304.488H168C161.375 304.488 156.006 299.801 156.006 294.018V273.039C156.006 272.169 156.829 271.451 157.824 271.451H165.402C166.398 271.451 167.221 272.169 167.221 273.039V282.375H167.134Z" stroke="#4C005F" stroke-width="6" stroke-miterlimit="10" stroke-linecap="round" stroke-linejoin="round"/>
<path d="M181.206 291.107H175.447V301.502H181.206V291.107Z" fill="#D6DADC"/>
<path d="M181.206 291.107H175.447V301.502H181.206V291.107Z" stroke="#4C005F" stroke-width="6" stroke-miterlimit="10" stroke-linecap="round" stroke-linejoin="round"/>
<path d="M186.401 285.853H183.76C182.331 285.853 181.162 286.874 181.162 288.121V304.526C181.162 305.774 182.331 306.794 183.76 306.794H186.401C192.074 306.794 196.664 302.787 196.664 297.836V294.849C196.664 289.86 192.074 285.853 186.401 285.853Z" stroke="#4C005F" stroke-width="6" stroke-miterlimit="10" stroke-linecap="round" stroke-linejoin="round"/>
<path d="M186.401 285.853H183.76C182.331 285.853 181.162 286.874 181.162 288.121V304.526C181.162 305.774 182.331 306.794 183.76 306.794H186.401C192.074 306.794 196.664 302.787 196.664 297.836V294.849C196.664 289.86 192.074 285.853 186.401 285.853Z" fill="#4C005F"/>
<path d="M263.693 143.99C263.693 140.475 266.983 137.602 271.01 137.602H272.006V121.877H264.559C257.934 121.877 252.564 126.564 252.564 132.348V153.327C252.564 154.196 253.387 154.914 254.383 154.914H261.961C262.956 154.914 263.779 154.196 263.779 153.327V143.99H263.693Z" fill="#EEF2F4"/>
<g opacity="0.1">
<path opacity="0.1" d="M261.008 145.35V154.158H261.917C262.913 154.158 263.606 153.44 263.606 152.57V143.234C263.606 141.986 263.996 140.814 264.732 139.832C262.523 140.928 261.008 142.969 261.008 145.35Z" fill="black"/>
<path opacity="0.1" d="M264.559 122.028C260.705 122.028 257.284 123.502 255.076 125.959C257.025 124.749 259.406 123.918 262.004 123.918C265.988 123.918 269.235 126.753 269.235 130.23V137.753C270.101 137.639 270.491 137.526 271.011 137.526H271.833V122.028H264.559Z" fill="black"/>
</g>
<path d="M263.693 143.99C263.693 140.475 266.983 137.602 271.01 137.602H272.006V121.877H264.559C257.934 121.877 252.564 126.564 252.564 132.348V153.327C252.564 154.196 253.387 154.914 254.383 154.914H261.961C262.956 154.914 263.779 154.196 263.779 153.327V143.99H263.693Z" stroke="#4C005F" stroke-width="6" stroke-miterlimit="10" stroke-linecap="round" stroke-linejoin="round"/>
<path d="M277.765 124.863H272.006V135.258H277.765V124.863Z" fill="#D6DADC"/>
<path d="M277.765 124.863H272.006V135.258H277.765V124.863Z" stroke="#4C005F" stroke-width="6" stroke-miterlimit="10" stroke-linecap="round" stroke-linejoin="round"/>
<path d="M282.962 140.512H280.321C278.892 140.512 277.723 139.491 277.723 138.244V121.839C277.723 120.591 278.892 119.571 280.321 119.571H282.962C288.634 119.571 293.224 123.578 293.224 128.529V131.516C293.224 136.505 288.634 140.512 282.962 140.512Z" stroke="#4C005F" stroke-width="6" stroke-miterlimit="10" stroke-linecap="round" stroke-linejoin="round"/>
<path d="M282.962 140.512H280.321C278.892 140.512 277.723 139.491 277.723 138.244V121.839C277.723 120.591 278.892 119.571 280.321 119.571H282.962C288.634 119.571 293.224 123.578 293.224 128.529V131.516C293.224 136.505 288.634 140.512 282.962 140.512Z" fill="#4C005F"/>
<path d="M63.9068 224.391C77.0596 224.391 87.7218 215.083 87.7218 203.601C87.7218 192.118 77.0596 182.811 63.9068 182.811C50.754 182.811 40.0918 192.118 40.0918 203.601C40.0918 215.083 50.754 224.391 63.9068 224.391Z" fill="#D7F0F4"/>
<path opacity="0.63" d="M63.9068 186.591C76.3339 186.591 86.5094 194.907 87.6352 205.491C87.6785 204.886 87.7218 204.243 87.7218 203.601C87.7218 192.109 77.07 182.811 63.9068 182.811C50.7436 182.811 40.0918 192.109 40.0918 203.601C40.0918 204.243 40.1351 204.886 40.1784 205.491C41.3042 194.869 51.523 186.591 63.9068 186.591Z" fill="#EEF2F4"/>
<path d="M63.9059 210.026C67.9714 210.026 71.2669 207.149 71.2669 203.6C71.2669 200.051 67.9714 197.174 63.9059 197.174C59.8405 197.174 56.5449 200.051 56.5449 203.6C56.5449 207.149 59.8405 210.026 63.9059 210.026Z" fill="#EEF2F4"/>
<path d="M63.9068 224.391C77.0596 224.391 87.7218 215.083 87.7218 203.601C87.7218 192.118 77.0596 182.811 63.9068 182.811C50.754 182.811 40.0918 192.118 40.0918 203.601C40.0918 215.083 50.754 224.391 63.9068 224.391Z" stroke="#4C005F" stroke-width="3" stroke-miterlimit="10"/>
<path d="M63.9059 197.174C59.8357 197.174 56.5449 200.047 56.5449 203.6C56.5449 205.453 57.4542 207.116 58.8831 208.288C58.8831 208.25 58.8831 208.212 58.8831 208.136C58.8831 205.717 61.1347 203.714 63.9492 203.714C66.7637 203.714 69.0153 205.679 69.0153 208.136C69.0153 208.174 69.0153 208.212 69.0153 208.288C70.4442 207.116 71.3535 205.453 71.3535 203.6C71.2669 200.047 67.9761 197.174 63.9059 197.174Z" fill="#DBDCDD"/>
<path d="M63.9059 210.026C67.9714 210.026 71.2669 207.149 71.2669 203.6C71.2669 200.051 67.9714 197.174 63.9059 197.174C59.8405 197.174 56.5449 200.051 56.5449 203.6C56.5449 207.149 59.8405 210.026 63.9059 210.026Z" stroke="#4C005F" stroke-width="3" stroke-miterlimit="10"/>
<path d="M60.3984 191.731V190.219L59.7489 191.731H59.4458L58.7963 190.219V191.731H58.1035V189.425H59.0561L59.619 190.711L60.1819 189.425H61.1345V191.731H60.3984Z" fill="#4C005F"/>
<path d="M61.5254 191.731V189.425H63.4739V189.955H62.2182V190.295H63.4306V190.824H62.2182V191.202H63.4739V191.731H61.5254Z" fill="#4C005F"/>
<path d="M65.6389 191.731L64.5131 190.408V191.731H63.8203V189.425H64.5131L65.5956 190.673V189.425H66.2884V191.731H65.6389Z" fill="#4C005F"/>
<path d="M66.7637 190.786V189.425H67.4565V190.786C67.4565 191.051 67.6297 191.24 68.0194 191.24C68.3658 191.24 68.5823 191.051 68.5823 190.786V189.425H69.2751V190.786C69.2751 191.353 68.8854 191.769 68.0194 191.769C67.1967 191.769 66.7637 191.353 66.7637 190.786Z" fill="#4C005F"/>
<path d="M77.8496 202.088L80.4909 203.411L77.8496 204.734V202.088Z" fill="#4C005F"/>
<path d="M75.252 202.088L77.8933 203.411L75.252 204.734V202.088Z" fill="#4C005F"/>
<path d="M81.0785 204.818V202.286H80.5156V204.818H81.0785Z" fill="#4C005F"/>
<path d="M61.8281 215.696L64.4694 217.019L61.8281 218.342V215.696Z" fill="#4C005F"/>
<path d="M64.9672 218.374V215.841H64.4043V218.374H64.9672Z" fill="#4C005F"/>
<path d="M65.9379 218.358V215.826H65.375V218.358H65.9379Z" fill="#4C005F"/>
<path d="M49.7038 202.088L47.0625 203.411L49.7038 204.734V202.088Z" fill="#4C005F"/>
<path d="M52.3015 202.088L49.6602 203.411L52.3015 204.734V202.088Z" fill="#4C005F"/>
<path d="M47.1996 204.834V202.302H46.6367V204.834H47.1996Z" fill="#4C005F"/>
<path d="M211.646 162.096H205.367V181.185H211.646V162.096Z" fill="#EEF2F4"/>
<path d="M211.646 162.096H205.367V181.185H211.646V162.096Z" stroke="#4C005F" stroke-width="3" stroke-miterlimit="10" stroke-linecap="round" stroke-linejoin="round"/>
</svg>
