<svg width="196" height="180" viewBox="0 0 196 180" fill="none" xmlns="http://www.w3.org/2000/svg">
<path opacity="0.32" d="M130.51 151.235H57.9776C56.6816 151.235 55.6016 150.162 55.6016 148.875C55.6016 147.588 56.6816 146.516 57.9776 146.516H130.51C131.806 146.516 132.886 147.588 132.886 148.875C132.886 150.162 131.806 151.235 130.51 151.235Z" fill="#1C1C1C"/>
<path opacity="0.32" d="M181.184 169.21H29.2061C27.9101 169.21 26.8301 168.137 26.8301 166.85C26.8301 165.563 27.9101 164.491 29.2061 164.491H181.184C182.48 164.491 183.56 165.563 183.56 166.85C183.56 168.18 182.48 169.21 181.184 169.21Z" fill="#1C1C1C"/>
<path d="M170.255 104.688H18.1914V23.8642C18.1914 20.1319 21.2154 17.1289 24.9738 17.1289H163.257C167.102 17.1289 170.255 20.2606 170.255 24.0787V104.688Z" fill="#383939"/>
<path d="M20.7832 98.2531V23.6071C20.7832 21.4621 22.5112 19.7461 24.6712 19.7461H163.775C165.935 19.7461 167.663 21.4621 167.663 23.6071V98.2531C167.663 100.398 165.935 102.114 163.775 102.114H24.6712C22.5544 102.114 20.7832 100.355 20.7832 98.2531Z" fill="#3A3A3A"/>
<path d="M170.255 104.688H18.1914V23.8642C18.1914 20.1319 21.2154 17.1289 24.9738 17.1289H163.257C167.102 17.1289 170.255 20.2606 170.255 24.0787V104.688Z" stroke="#383939" stroke-width="6" stroke-miterlimit="10" stroke-linecap="round" stroke-linejoin="round"/>
<path d="M161.608 96.0738V25.7178H26.8242V96.0738H161.608Z" fill="#4F4F4F"/>
<path d="M163.214 125.28H25.017C21.2586 125.28 18.1914 122.234 18.1914 118.502V104.688H170.255V118.287C170.255 122.105 167.102 125.28 163.214 125.28Z" fill="#D4E8DC"/>
<path d="M25.0161 121.848C23.1585 121.848 21.6465 120.346 21.6465 118.502V106.104H166.798V118.287C166.798 120.261 165.2 121.848 163.213 121.848H25.0161Z" fill="#EBF2EE"/>
<path d="M163.214 125.28H25.017C21.2586 125.28 18.1914 122.234 18.1914 118.502V104.688H170.255V118.287C170.255 122.105 167.102 125.28 163.214 125.28Z" stroke="#383939" stroke-width="6" stroke-miterlimit="10" stroke-linecap="round" stroke-linejoin="round"/>
<path d="M117.118 140.724H71.3262L78.1086 125.28H110.336L117.118 140.724Z" fill="#CAD8D0"/>
<path d="M113.359 132.144L110.335 125.28H78.108L75.084 132.144H113.359Z" fill="#A1ADA6"/>
<path d="M117.118 140.724H71.3262L78.1086 125.28H110.336L117.118 140.724Z" stroke="#383939" stroke-width="6" stroke-miterlimit="10" stroke-linecap="round" stroke-linejoin="round"/>
<path d="M125.758 147.588H62.6855L63.3335 145.314C64.1111 142.612 66.6599 140.724 69.5975 140.724H118.846C121.783 140.724 124.375 142.612 125.11 145.314L125.758 147.588Z" fill="#DAEDE2"/>
<path d="M125.758 147.588H62.6855L63.3335 145.314C64.1111 142.612 66.6599 140.724 69.5975 140.724H118.846C121.783 140.724 124.375 142.612 125.11 145.314L125.758 147.588Z" stroke="#383939" stroke-width="6" stroke-miterlimit="10" stroke-linecap="round" stroke-linejoin="round"/>
<path d="M38.0185 165.134H147.617C149.215 165.134 150.511 163.847 150.511 162.26C150.511 160.672 149.215 159.385 147.617 159.385H38.0185C36.4201 159.385 35.1241 160.672 35.1241 162.26C35.0809 163.847 36.3769 165.134 38.0185 165.134Z" fill="#DAEDE2"/>
<path d="M38.0185 165.134H147.617C149.215 165.134 150.511 163.847 150.511 162.26C150.511 160.672 149.215 159.385 147.617 159.385H38.0185C36.4201 159.385 35.1241 160.672 35.1241 162.26C35.0809 163.847 36.3769 165.134 38.0185 165.134Z" stroke="#383939" stroke-width="6" stroke-miterlimit="10" stroke-linecap="round" stroke-linejoin="round"/>
<path d="M71.6289 159.343H124.333V157.627C124.333 156.211 123.167 155.053 121.741 155.053H74.2209C72.7953 155.053 71.6289 156.211 71.6289 157.627V159.343Z" fill="#383939"/>
<path d="M61.1738 159.343H70.3322V157.627C70.3322 156.211 69.1658 155.053 67.7402 155.053H63.7658C62.3402 155.053 61.1738 156.211 61.1738 157.627V159.343Z" fill="#383939"/>
<path d="M50.5039 159.343H59.6623V157.627C59.6623 156.211 58.4959 155.053 57.0703 155.053H53.0959C51.6703 155.053 50.5039 156.211 50.5039 157.627V159.343Z" fill="#383939"/>
<path d="M136.559 159.343H145.717V157.627C145.717 156.211 144.551 155.053 143.125 155.053H139.151C137.725 155.053 136.559 156.211 136.559 157.627V159.343Z" fill="#383939"/>
<path d="M125.932 159.343H135.09V157.627C135.09 156.211 133.924 155.053 132.498 155.053H128.524C127.098 155.053 125.932 156.211 125.932 157.627V159.343Z" fill="#383939"/>
<path d="M39.877 159.343H49.0354V157.627C49.0354 156.211 47.869 155.053 46.4434 155.053H42.469C41.0434 155.053 39.877 156.211 39.877 157.627V159.343Z" fill="#383939"/>
<path d="M176.519 165.134C176.476 161.874 172.89 158.613 166.54 158.613C160.233 158.613 156.604 161.874 156.561 165.134H176.519Z" fill="#DAEDE2"/>
<path d="M176.519 165.134C176.476 161.874 172.89 158.613 166.54 158.613C160.233 158.613 156.604 161.874 156.561 165.134H176.519Z" stroke="#383939" stroke-width="6" stroke-miterlimit="10" stroke-linecap="round" stroke-linejoin="round"/>
<path d="M100.358 113.912C98.3704 113.912 96.7288 112.453 96.4696 110.522C96.4264 110.522 96.4264 110.522 96.3832 110.522C93.9208 110.522 91.9336 112.496 91.9336 114.941C91.9336 117.386 93.9208 119.36 96.3832 119.36C98.8456 119.36 100.833 117.386 100.833 114.941C100.833 114.555 100.79 114.212 100.703 113.869C100.574 113.912 100.487 113.912 100.358 113.912Z" fill="#383939"/>
<path d="M98.931 60.2436C97.6782 60.2436 96.5982 59.2998 96.4686 58.0986H96.4254C94.8702 58.0986 93.5742 59.3856 93.5742 60.93C93.5742 62.4744 94.8702 63.7614 96.4254 63.7614C97.9806 63.7614 99.2766 62.4744 99.2766 60.93C99.2766 60.6726 99.2334 60.4581 99.1902 60.2436C99.0606 60.2436 99.0174 60.2436 98.931 60.2436Z" fill="#E7F7F7"/>
<path opacity="0.16" d="M42.123 96.108H58.6254L94.7406 25.752H78.2383L42.123 96.108Z" fill="#C2D3C9"/>
<path opacity="0.16" d="M71.9745 96.108L108.09 25.752H101.912L65.7969 96.108H71.9745Z" fill="#C2D3C9"/>
<g opacity="0.38">
<path opacity="0.38" d="M104.288 71.6122H86.9214C86.5758 71.6122 86.2734 71.3119 86.2734 70.9687C86.2734 70.6255 86.5758 70.3252 86.9214 70.3252H104.288C104.633 70.3252 104.936 70.6255 104.936 70.9687C104.936 71.3119 104.633 71.6122 104.288 71.6122Z" fill="#C2D3C9"/>
</g>
<path d="M92.9262 70.3252H86.9214C86.5758 70.3252 86.2734 70.6255 86.2734 70.9687C86.2734 71.3119 86.5758 71.6122 86.9214 71.6122H92.9262V70.3252Z" fill="#C2D3C9"/>
</svg>
