<svg width="114" height="94" viewBox="0 0 114 94" fill="none" xmlns="http://www.w3.org/2000/svg">
<g clip-path="url(#clip0_213_6252)">
<path d="M1.64375 87.8164L1.64375 85.4539L13.4879 81.0137L1.64375 76.584V74.2215L17 80.0855V81.9629L1.64375 87.8164ZM1.64375 88.8922L1.64375 86.6457L11.8953 86.2555H17V88.8922H1.64375ZM1.64375 75.3922L1.64375 73.1352H17V75.7824H11.8953L1.64375 75.3922ZM9.21641 68.3574V64.993C9.21641 64.0086 9.38164 63.1719 9.71211 62.4828C10.0426 61.7938 10.5031 61.2699 11.0937 60.9113C11.6773 60.5457 12.3453 60.3629 13.0977 60.3629C13.6531 60.3629 14.1699 60.4648 14.648 60.6688C15.1191 60.8727 15.5305 61.175 15.882 61.5758C16.2336 61.9695 16.5078 62.4547 16.7047 63.0313C16.9016 63.6008 17 64.2547 17 64.993V70.0449H5.58828V67.4926H14.9855V64.993C14.9855 64.4867 14.8977 64.0824 14.7219 63.7801C14.5461 63.4777 14.3176 63.2598 14.0363 63.1262C13.7551 62.9855 13.4562 62.9152 13.1398 62.9152C12.8164 62.9152 12.5105 62.9855 12.2223 63.1262C11.934 63.2598 11.6984 63.4777 11.5156 63.7801C11.3328 64.0824 11.2414 64.4867 11.2414 64.993V68.3574H9.21641ZM5.58828 55.8699H17V58.4117H5.58828L5.58828 55.8699ZM12.1168 41.9375V45.5867L10.3238 45.6078V42.6125C10.3238 42.1203 10.2746 41.716 10.1762 41.3996C10.0777 41.0762 9.93008 40.8371 9.7332 40.6824C9.5293 40.5277 9.2832 40.4504 8.99492 40.4504C8.75586 40.4504 8.54844 40.4961 8.37266 40.5875C8.18984 40.6789 8.04219 40.8195 7.92969 41.0094C7.81016 41.1922 7.72578 41.4242 7.67656 41.7055C7.62031 41.9797 7.59219 42.2996 7.59219 42.6652V44.743H17V47.2848H5.58828L5.58828 42.6652C5.58828 41.934 5.65156 41.2766 5.77812 40.693C5.90469 40.1023 6.09805 39.5996 6.3582 39.1848C6.61836 38.7699 6.94883 38.4535 7.34961 38.2355C7.74336 38.0105 8.20742 37.898 8.7418 37.898C9.09336 37.898 9.42383 37.9754 9.7332 38.1301C10.0426 38.2777 10.3168 38.4992 10.5559 38.7945C10.7949 39.0898 10.9918 39.452 11.1465 39.8809C11.2941 40.3098 11.3855 40.802 11.4207 41.3574L12.1168 41.9375ZM17 41.9375V46.325L14.9961 45.3125V41.9375C14.9961 41.4875 14.9398 41.1148 14.8273 40.8195C14.7148 40.5242 14.5531 40.3062 14.3422 40.1656C14.1242 40.018 13.8676 39.9441 13.5723 39.9441C13.2699 39.9441 13.0098 40.0145 12.7918 40.1551C12.5738 40.2957 12.4086 40.5137 12.2961 40.809C12.1766 41.0973 12.1168 41.4734 12.1168 41.9375V44.8379L10.3238 44.8168V41.368L11.0199 40.6402C11.0691 39.916 11.2238 39.3148 11.484 38.8367C11.7441 38.3586 12.0711 38 12.4648 37.7609C12.8586 37.5219 13.2875 37.4023 13.7516 37.4023C14.2859 37.4023 14.757 37.5043 15.1648 37.7082C15.5727 37.9051 15.9137 38.2004 16.1879 38.5941C16.4551 38.9809 16.659 39.4555 16.7996 40.018C16.9332 40.5805 17 41.2203 17 41.9375ZM14.1945 24.3137L1.64375 20.2742L1.64375 17.3527L17 22.8582V24.8305L14.1945 24.3137ZM1.64375 28.0473L14.1945 24.0395L17 23.491V25.4738L1.64375 30.9582L1.64375 28.0473ZM1.64375 12.9863H17V15.6336H1.64375L1.64375 12.9863ZM1.64375 3.75782L9.03711 9.98047L12.7918 13.5242L10.1656 13.9883L7.04375 11.457L1.64375 6.98516L1.64375 3.75782ZM17 6.60547L9.72266 11.6574L7.91914 9.83282L17 3.4625V6.60547Z" fill="white"/>
</g>
<path fill-rule="evenodd" clip-rule="evenodd" d="M39.5846 3.91602C30.9322 3.91602 23.918 10.9302 23.918 19.5827V74.416C23.918 83.0683 30.9322 90.0827 39.5846 90.0827H94.418C103.07 90.0827 110.085 83.0683 110.085 74.416V19.5827C110.085 10.9302 103.07 3.91602 94.418 3.91602H39.5846ZM47.0619 27.0603V28.4846C47.0619 33.4373 48.5614 39.3767 51.3702 44.4472C53.8285 48.8852 57.2067 52.5156 61.3045 54.3255V27.0603H72.6981V40.3884C75.2623 39.5968 77.8634 38.2922 79.9306 36.5423C82.4557 34.4053 84.0921 31.6948 84.0921 28.4846V27.0603H95.486V28.4846C95.486 35.9533 91.3164 42.3052 85.6521 46.4933C88.4353 48.2868 91.2368 50.6955 93.494 53.4904C96.2792 56.9395 98.3346 61.1033 98.3346 65.515V66.9391H86.9841L86.9414 65.5589C86.8447 62.4279 84.5832 59.5335 81.2552 57.2124C78.5488 55.3246 75.3563 53.9777 72.6981 53.3181V66.9391H67.0013C57.3014 66.9391 49.4387 61.4401 44.0595 53.9843C38.6873 46.5384 35.668 36.9902 35.668 28.4846V27.0604L47.0619 27.0603Z" fill="white"/>
<defs>
<clipPath id="clip0_213_6252">
<rect width="94" height="20" fill="white" transform="translate(0 94) rotate(-90)"/>
</clipPath>
</defs>
</svg>
